<?xml version="1.0" encoding="UTF-8"?>
<svg id="Layer_2" data-name="Layer 2" xmlns="http://www.w3.org/2000/svg" viewBox="0 0 2553.3802 1946.8425">
  <defs>
    <style>
      .cls-1 {
        fill: #ed1c24;
      }
    </style>
  </defs>
  <path class="cls-1" d="M2390.7035,0v1049.0054h-525.091L2390.7035,0ZM2033.427,1520.7302h519.9532v-242.6111h-519.9532v242.6111ZM848.9401,1036.1779h774.3637V333.6972h-774.3637v702.4807ZM518.7208,1439.0427l-260.2864-176.0129-188.5068,279.2646,263.353,170.0092,185.4403-273.2609ZM619.8809,1430.8124l272.3023,516.03,304.052-161.2703-274.3554-521.7568-301.9989,166.997ZM1093.2105,1561.9304l114.4196,217.5978,480.8923-255.0669-111.6425-213.478-483.6694,250.9471ZM933.2965,1257.8129l154.1777,293.2082,495.4161-256.3762-649.5939-36.8321ZM261.147,1259.0112l268.4373,171.8012h90.2966l229.0592-377.2262-301.7483-204.3356H0v409.7607h261.147Z"/>
</svg>