<svg xmlns="http://www.w3.org/2000/svg" id="Layer_1" data-name="Layer 1" viewBox="0 0 2990.574 1988.572"><defs><style>.cls-1{fill:none}.cls-2{fill:#000000}</style></defs><path d="M1702.929 752.593c0 2.59 2.115 4.019 5.02 4.019 3.65 0 6.398-1.85 7.723-4.915v-2.908l-7.722.106c-2.957.051-5.021 1.056-5.021 3.698M1341.296 1668.921h13.321c-.32-3.65-2.856-5.816-6.343-5.816-3.595 0-6.397 2.379-6.979 5.816M1282.92 1678.328c0 2.59 2.113 4.018 5.018 4.018 3.65 0 6.398-1.852 7.723-4.915v-2.91l-7.723.108c-2.96.054-5.018 1.06-5.018 3.699M1552.692 747.043c0-5.92-2.748-9.515-7.242-9.515s-7.19 3.595-7.19 9.515c0 5.868 2.696 9.411 7.19 9.411s7.242-3.543 7.242-9.411M1768.286 737.37c-3.595 0-6.398 2.38-6.979 5.814h13.322c-.32-3.647-2.857-5.813-6.343-5.813M2671.743 793.723c-3.595 0-5.922 3.172-5.922 9.249 0 6.185 2.433 9.357 6.028 9.357 3.278 0 7.93-3.541 7.93-9.303 0-5.816-4.813-9.303-8.036-9.303M1588.565 1376.865c0 2.59 2.112 4.018 5.018 4.018 3.65 0 6.397-1.851 7.722-4.914v-2.911l-7.722.108c-2.96.05-5.018 1.054-5.018 3.699M2665.566 879.274c4.491 0 7.239-3.543 7.239-9.411 0-5.92-2.748-9.515-7.24-9.515-4.496 0-7.19 3.595-7.19 9.515 0 5.868 2.694 9.411 7.19 9.411M1632.467 1371.314c0 5.865 2.694 9.412 7.19 9.412 4.492 0 7.24-3.546 7.24-9.412 0-5.92-2.748-9.514-7.24-9.514-4.496 0-7.19 3.595-7.19 9.514M2634.92 741.946c0 2.59 2.115 4.019 5.023 4.019 3.647 0 6.398-1.85 7.717-4.915v-2.908l-7.717.106c-2.96.051-5.023 1.056-5.023 3.698M949.014 1193.521c0 2.59 2.112 4.019 5.018 4.019 3.65 0 6.397-1.852 7.722-4.915v-2.91l-7.722.108c-2.96.054-5.018 1.059-5.018 3.698M786.014 1120.13l-6.343-19.084-6.5 19.084zM844.227 1111.826c-3.596 0-5.92 3.172-5.92 9.254 0 6.186 2.433 9.357 6.028 9.357 3.275 0 7.93-3.54 7.93-9.303 0-5.816-4.813-9.308-8.039-9.308M741.465 1551.122c-3.595 0-6.397 2.379-6.978 5.817h13.321c-.32-3.65-2.856-5.817-6.343-5.817ZM772.866 1499.611c0 2.59 2.113 4.019 5.018 4.019 3.65 0 6.398-1.852 7.723-4.915v-2.91l-7.723.108c-2.96.054-5.018 1.059-5.018 3.698M1025.75 1111.565c-3.595 0-6.397 2.379-6.978 5.817h13.322c-.32-3.65-2.857-5.817-6.343-5.817M1097.866 1111.565c-3.595 0-6.397 2.379-6.979 5.817h13.322c-.32-3.65-2.856-5.817-6.343-5.817M1308.673 1606.044c0-5.92-2.748-9.515-7.24-9.515-4.496 0-7.19 3.595-7.19 9.515 0 5.87 2.694 9.411 7.19 9.411 4.492 0 7.24-3.54 7.24-9.411M901.76 1111.565c-3.595 0-6.397 2.379-6.978 5.817h13.321c-.32-3.65-2.856-5.817-6.343-5.817ZM1003.202 1108.23c0-3.698-2.536-6.076-7.456-6.076h-10.677v12.425h10.047c5.18 0 8.086-2.378 8.086-6.348M2587.273 804.878l-7.717.103c-2.96.054-5.024 1.059-5.024 3.698 0 2.59 2.116 4.02 5.024 4.02 3.647 0 6.397-1.847 7.717-4.916zM887.021 491.7c-3.595 0-5.925 3.172-5.925 9.255 0 6.185 2.433 9.357 6.028 9.357 3.28 0 7.93-3.54 7.93-9.303 0-5.816-4.812-9.308-8.033-9.308M820.76 577.257c4.492 0 7.24-3.54 7.24-9.411 0-5.92-2.749-9.515-7.24-9.515-4.496 0-7.19 3.595-7.19 9.515 0 5.87 2.694 9.411 7.19 9.411M964.785 506.663c0 2.59 2.112 4.018 5.018 4.018 3.65 0 6.397-1.852 7.722-4.915v-2.91l-7.722.108c-2.955.054-5.018 1.06-5.018 3.699M819.446 506.663c0 2.59 2.118 4.018 5.023 4.018 3.645 0 6.398-1.852 7.718-4.915v-2.91l-7.718.108c-2.96.054-5.023 1.06-5.023 3.699M704.867 491.7c-3.595 0-5.925 3.172-5.925 9.255 0 6.185 2.433 9.357 6.028 9.357 3.275 0 7.93-3.54 7.93-9.303 0-5.816-4.812-9.308-8.033-9.308M730.376 506.663c0 2.59 2.112 4.018 5.023 4.018 3.65 0 6.398-1.852 7.717-4.915v-2.91l-7.717.108c-2.96.054-5.023 1.06-5.023 3.699M640.73 480.92l-6.501 19.084h12.844zM1019.462 506.663c0 2.59 2.118 4.018 5.023 4.018 3.644 0 6.398-1.852 7.717-4.915v-2.91l-7.717.108c-2.96.054-5.023 1.06-5.023 3.699M2763.559 1436.261c3.595 0 6.028-3.172 6.028-9.363 0-6.077-2.324-9.248-5.92-9.248-3.226 0-8.037 3.492-8.037 9.303 0 5.762 4.654 9.308 7.929 9.308ZM2702.495 726.987c-3.595 0-5.922 3.171-5.922 9.251 0 6.186 2.433 9.357 6.028 9.357 3.278 0 7.929-3.543 7.929-9.305 0-5.814-4.812-9.303-8.035-9.303M2604.236 738.142l-7.717.105c-2.96.052-5.024 1.057-5.024 3.699 0 2.59 2.116 4.019 5.024 4.019 3.647 0 6.397-1.85 7.717-4.915zM2730.86 1436.467c4.491 0 7.24-3.54 7.24-9.406 0-5.92-2.749-9.514-7.24-9.514-4.497 0-7.19 3.595-7.19 9.514 0 5.866 2.693 9.406 7.19 9.406M1004.7 567.688c0 6.186 2.434 9.357 6.03 9.357 3.28 0 7.928-3.54 7.928-9.302 0-5.817-4.812-9.309-8.032-9.309-3.595 0-5.925 3.172-5.925 9.254M2505.966 735.285h12.846l-6.343-19.084zM1076.572 506.663c0 2.59 2.113 4.018 5.018 4.018 3.65 0 6.397-1.852 7.723-4.915v-2.91l-7.723.108c-2.954.054-5.018 1.06-5.018 3.699M949.92 573.396c0 2.59 2.113 4.019 5.024 4.019 3.65 0 6.398-1.852 7.717-4.915v-2.911l-7.717.109c-2.96.054-5.023 1.059-5.023 3.698M704.509 1484.389c-3.595 0-6.398 2.378-6.979 5.816h13.322c-.32-3.65-2.857-5.816-6.343-5.816ZM1150.007 506.663c0 2.59 2.113 4.018 5.018 4.018 3.65 0 6.398-1.852 7.723-4.915v-2.91l-7.723.108c-2.96.054-5.018 1.06-5.018 3.699M2540.354 860.454c-3.596 0-6.186 3.171-6.186 8.933 0 5.657 2.699 8.828 6.294 8.828 3.275 0 7.875-3.54 7.875-8.773 0-5.499-4.758-8.988-7.984-8.988M1826.156 1579.102c0 2.59 2.113 4.018 5.018 4.018 3.65 0 6.398-1.846 7.723-4.914v-2.906l-7.723.103c-2.96.054-5.018 1.06-5.018 3.699M530.94 778.696c4.492 0 7.24-3.54 7.24-9.412 0-5.92-2.748-9.514-7.24-9.514-4.496 0-7.19 3.595-7.19 9.514 0 5.871 2.694 9.412 7.19 9.412M676.111 1566.345c0 2.59 2.113 4.019 5.018 4.019 3.65 0 6.398-1.852 7.723-4.915v-2.911l-7.723.108c-2.96.055-5.018 1.06-5.018 3.699M433.078 692.882c-3.595 0-6.397 2.378-6.984 5.816h13.327c-.32-3.65-2.856-5.816-6.343-5.816ZM478.37 769.127c0 6.186 2.434 9.357 6.029 9.357 3.275 0 7.929-3.54 7.929-9.303 0-5.816-4.812-9.308-8.038-9.308-3.595 0-5.92 3.171-5.92 9.254M733.515 1503.26c3.274 0 7.928-3.54 7.928-9.302 0-5.817-4.811-9.309-8.037-9.309-3.595 0-5.92 3.172-5.92 9.255 0 6.185 2.433 9.357 6.029 9.357M500.219 701.446h12.844l-6.344-19.084zM1778.93 1582.751c3.595 0 6.028-3.172 6.028-9.357 0-6.077-2.324-9.249-5.92-9.249-3.225 0-8.037 3.487-8.037 9.303 0 5.762 4.654 9.303 7.929 9.303" class="cls-1"/><path d="m2331.133 1350.786 8.933 29.391h6.713l9.938-37.005h-5.496l-7.875 30.396-9.52-30.396h-5.55l-9.2 30.77-8.19-30.77h-5.5l10.1 37.005h6.816zM2378.994 1347.403c5.974 0 9.091 3.752 10.362 7.505l5.127-1.901c-2.222-6.131-8.244-10.574-15.489-10.574-10.786 0-17.867 8.141-17.867 19.296 0 11.633 6.978 19.192 17.71 19.192 7.45 0 13.587-4.763 15.597-11.106l-4.92-1.743c-1.429 4.654-5.024 7.88-10.52 7.88-7.875 0-12.263-6.028-12.263-14.435 0-8.564 4.758-14.115 12.263-14.115M162.842 768.655l-7.875 30.396-9.514-30.397h-5.55l-9.2 30.766-8.2-30.765h-5.497l10.102 37.005h6.82l8.826-29.391 8.933 29.39h6.713l9.938-37.005zM190.615 772.885c5.974 0 9.091 3.753 10.362 7.505l5.127-1.9c-2.221-6.137-8.25-10.574-15.489-10.574-10.785 0-17.867 8.14-17.867 19.295 0 11.628 6.973 19.187 17.704 19.187 7.457 0 13.588-4.757 15.597-11.1l-4.92-1.743c-1.423 4.649-5.018 7.874-10.514 7.874-7.88 0-12.268-6.022-12.268-14.43 0-8.564 4.763-14.114 12.268-14.114M2331.133 1477.872l8.933 29.391h6.713l9.938-37.005h-5.496l-7.875 30.396-9.52-30.396h-5.55l-9.194 30.77-8.195-30.77h-5.502l10.101 37.005h6.816zM2378.994 1474.483c5.974 0 9.091 3.758 10.362 7.51l5.127-1.905c-2.222-6.126-8.244-10.569-15.489-10.569-10.786 0-17.867 8.136-17.867 19.29 0 11.633 6.978 19.193 17.71 19.193 7.45 0 13.587-4.758 15.597-11.1l-4.92-1.744c-1.429 4.654-5.024 7.88-10.52 7.88-7.875 0-12.263-6.028-12.263-14.435 0-8.564 4.758-14.12 12.263-14.12ZM2529.438 749.56l-12.793-37.005h-8.034l-13.219 37.005h5.656l3.226-9.357h16.124l3.12 9.357zm-23.472-14.275 6.503-19.084 6.343 19.084zM2535.76 723.128v26.432h5.074v-13.482c0-4.597 2.803-8.934 5.762-8.934 1.85 0 2.854 1.268 2.854 3.65v1.108h4.337c.051-.315.051-1.057.051-1.955 0-4.758-2.115-7.454-5.813-7.454-2.697 0-5.13 1.903-7.245 5.71v-5.075zM2571.266 753.418l11.103-30.29h-5.341l-6.873 20.721-6.924-20.72h-5.445l9.833 26.8-.53 1.374c-.899 2.327-2.01 2.696-4.757 2.696h-4.97v4.549h5.92c4.388 0 6.558-1.271 7.983-5.13ZM2604.448 745.172c.16 2.06.423 3.54.58 4.388h4.97c-.633-1.586-.899-3.753-.95-6.131v-10.31c0-5.869-3.226-10.626-10.837-10.626-7.137 0-11.05 4.388-11.525 8.564h5.233c.212-1.903 2.01-4.282 6.237-4.282 3.756 0 6.08 2.01 6.08 6.343v.793l-7.771.106c-6.183.106-9.99 2.645-9.99 8.14 0 5.024 3.752 8.038 8.827 8.038 4.494 0 7.614-2.063 9.146-5.023Zm-7.93.793c-2.907 0-5.023-1.429-5.023-4.02 0-2.641 2.064-3.646 5.024-3.698l7.717-.105v2.908c-1.32 3.065-4.07 4.915-7.717 4.915M2639.889 734.017c-6.183.106-9.99 2.645-9.99 8.14 0 5.024 3.753 8.038 8.828 8.038 4.494 0 7.614-2.064 9.145-5.023.16 2.06.424 3.54.581 4.388h4.97c-.633-1.586-.9-3.753-.95-6.132v-10.31c0-5.868-3.227-10.625-10.838-10.625-7.136 0-11.049 4.388-11.524 8.564h5.232c.212-1.903 2.01-4.282 6.238-4.282 3.755 0 6.08 2.01 6.08 6.343v.793zm7.771 7.033c-1.32 3.066-4.07 4.915-7.717 4.915-2.908 0-5.023-1.429-5.023-4.02 0-2.641 2.064-3.646 5.023-3.698l7.717-.105zM2661.23 723.128v26.432h5.074v-13.216c0-5.71 3.859-9.251 7.56-9.251 3.435 0 5.127 2.115 5.127 7.4v15.067h5.075v-16.811c0-6.504-3.066-10.256-8.616-10.256-3.964 0-7.242 2.748-9.2 6.025v-5.39zM2715.393 749.56v-37.005h-5.075v15.963c-2.273-3.804-5.656-6.025-9.303-6.025-6.134 0-9.569 5.816-9.569 13.745 0 7.983 3.49 13.851 9.675 13.851 3.647 0 6.979-2.22 9.251-6.185v5.656zm-12.792-3.965c-3.595 0-6.028-3.171-6.028-9.357 0-6.08 2.327-9.251 5.922-9.251 3.223 0 8.035 3.49 8.035 9.303 0 5.762-4.652 9.306-7.929 9.306M2560.92 816.293v-37.005h-5.393v15.489h-19.876v-15.489h-5.393v37.005h5.393v-16.439h19.876v16.44zM2587.485 811.905c.16 2.064.423 3.541.58 4.388h4.97c-.633-1.585-.899-3.752-.95-6.131v-10.308c0-5.87-3.226-10.628-10.838-10.628-7.136 0-11.049 4.389-11.524 8.565h5.233c.212-1.901 2.01-4.28 6.237-4.28 3.756 0 6.08 2.01 6.08 6.344v.792l-7.772.104c-6.183.108-9.99 2.644-9.99 8.14 0 5.024 3.753 8.038 8.828 8.038 4.494 0 7.614-2.064 9.146-5.024Zm-7.93.793c-2.907 0-5.023-1.428-5.023-4.019 0-2.639 2.064-3.644 5.024-3.698l7.717-.103v2.905c-1.32 3.069-4.07 4.915-7.717 4.915M2622.516 816.293v-13.745c0-5.496 3.383-8.776 6.767-8.776 3.117 0 4.915 2.172 4.915 6.24v16.281h5.075v-16.862c0-6.61-2.803-10.205-7.984-10.205-4.122 0-7.717 2.488-9.514 6.029-.953-3.492-3.49-6.029-7.508-6.029-3.91 0-6.607 2.33-8.459 5.871v-5.235h-5.02v26.431h5.075v-13.745c0-5.496 3.383-8.776 6.766-8.776 3.12 0 4.915 2.33 4.915 6.767v15.754zM2648.07 789.862h5.075v26.432h-5.075zM2647.489 779.288h6.289v6.343h-6.289zM2684.641 779.288h-5.075v15.967c-2.272-3.807-5.656-6.029-9.303-6.029-6.134 0-9.569 5.817-9.569 13.746 0 7.983 3.49 13.854 9.675 13.854 3.647 0 6.976-2.222 9.252-6.186v5.653h5.02zm-12.792 33.04c-3.595 0-6.028-3.17-6.028-9.356 0-6.077 2.327-9.249 5.922-9.249 3.224 0 8.035 3.487 8.035 9.303 0 5.762-4.651 9.303-7.929 9.303M2463.025 850.779v-4.758h-27.703v37.006h28.865v-4.863h-23.472v-12.478h15.173v-4.863h-15.173V850.78zM2481.185 879.326c-3.435 0-6.186-1.374-6.555-4.228h-5.075c.53 4.915 4.812 8.564 11.524 8.564 6.452 0 10.416-3.489 10.416-8.3 0-3.702-2.378-6.61-7.348-7.612l-4.548-.899c-3.011-.584-4.016-1.586-4.016-3.226 0-1.955 1.692-3.489 4.97-3.489 3.434 0 5.338 1.746 5.601 3.913h5.075c-.738-4.706-4.385-8.09-10.465-8.09-6.028 0-10.15 3.384-10.15 8.036 0 3.65 2.485 6.291 7.4 7.402l4.493 1.004c3.278.74 4.07 1.904 4.07 3.278 0 2.115-1.797 3.647-5.392 3.647M2521.767 883.027v-16.811c0-6.504-3.066-10.256-8.616-10.256-3.965 0-7.19 2.748-9.146 5.974v-15.912h-5.075v37.005h5.075v-13.216c0-5.71 3.859-9.251 7.56-9.251 3.435 0 5.127 2.115 5.127 7.4v15.067zM2540.989 888.471c-3.699 0-5.654-1.692-6.289-3.858h-5.181c.684 4.863 4.915 8.034 11.416 8.034 7.983 0 12.268-4.122 12.268-11.841v-24.21h-5.024v5.495c-2.221-3.91-5.55-6.131-9.303-6.131-5.659 0-9.78 5.656-9.78 13.427 0 7.717 4.176 13.322 9.883 13.322 3.753 0 6.876-2.221 9.146-6.08v5.024c0 4.969-3.014 6.818-7.136 6.818Zm-.527-10.256c-3.595 0-6.294-3.171-6.294-8.828 0-5.762 2.59-8.933 6.186-8.933 3.225 0 7.983 3.49 7.983 8.988 0 5.233-4.6 8.773-7.875 8.773ZM2585.005 883.027v-16.811c0-6.504-3.068-10.256-8.618-10.256-3.965 0-7.19 2.748-9.146 5.974v-15.912h-5.077v37.005h5.077v-13.216c0-5.71 3.862-9.251 7.56-9.251 3.438 0 5.127 2.115 5.127 7.4v15.067zM2593.706 856.595h5.078v26.432h-5.078zM2593.124 846.021h6.294v6.343h-6.294zM2650.25 850.779v-4.758h-27.702v37.006h5.393v-16.811h17.286v-4.863h-17.286v-10.574zM2665.566 883.662c7.348 0 12.42-5.659 12.42-13.8 0-8.192-5.072-13.902-12.42-13.902-7.3 0-12.372 5.71-12.372 13.903 0 8.14 5.073 13.8 12.372 13.8m0-23.314c4.491 0 7.239 3.595 7.239 9.515 0 5.868-2.748 9.411-7.24 9.411-4.496 0-7.19-3.543-7.19-9.411 0-5.92 2.694-9.515 7.19-9.515M2685.47 856.595v26.432h5.077v-13.482c0-4.597 2.803-8.934 5.762-8.934 1.852 0 2.857 1.271 2.857 3.65v1.108h4.334c.054-.315.054-1.057.054-1.955 0-4.758-2.118-7.454-5.816-7.454-2.7 0-5.127 1.903-7.245 5.71v-5.075zM2718.288 883.662c3.964 0 7.239-2.75 9.194-6.028v5.393h5.024v-26.432h-5.073v13.216c0 5.708-3.861 9.251-7.56 9.251-3.437 0-5.126-2.115-5.126-7.402v-15.065h-5.078v16.811c0 6.5 3.068 10.256 8.619 10.256ZM2758.226 867.272v15.755h4.969V869.28c0-5.498 3.383-8.776 6.767-8.776 3.123 0 4.92 2.17 4.92 6.24v16.282h5.073V866.16c0-6.606-2.803-10.201-7.984-10.201-4.122 0-7.717 2.484-9.514 6.025-.95-3.486-3.487-6.025-7.506-6.025-3.915 0-6.61 2.327-8.461 5.868v-5.233h-5.023v26.432h5.077V869.28c0-5.498 3.384-8.776 6.767-8.776 3.117 0 4.915 2.327 4.915 6.767ZM1518.464 760.207h6.186v-37.005h-5.13v28.81l-17.655-28.81h-8.513v37.005h5.13V727.64zM1557.873 747.043c0-8.193-5.075-13.903-12.423-13.903-7.297 0-12.372 5.71-12.372 13.903 0 8.14 5.076 13.8 12.372 13.8 7.348 0 12.423-5.66 12.423-13.8m-19.614 0c0-5.92 2.697-9.515 7.19-9.515s7.243 3.595 7.243 9.515c0 5.868-2.748 9.411-7.242 9.411s-7.19-3.543-7.19-9.411M1565.307 733.775v26.432h5.075v-13.482c0-4.597 2.803-8.934 5.763-8.934 1.849 0 2.853 1.269 2.853 3.65v1.108h4.337c.052-.315.052-1.056.052-1.955 0-4.758-2.116-7.454-5.814-7.454-2.697 0-5.13 1.903-7.245 5.71v-5.075zM1593.151 727.641v6.134h-5.18v4.228h5.18v16.018c0 4.283 2.485 6.186 7.294 6.186h5.235v-4.388h-4.07c-2.751 0-3.384-.95-3.384-2.908v-14.908h5.974v-4.228h-5.974v-9.517zM1611.798 723.202v37.005h5.075V746.99c0-5.71 3.858-9.251 7.56-9.251 3.435 0 5.126 2.115 5.126 7.4v15.067h5.075v-16.811c0-6.503-3.065-10.256-8.616-10.256-3.964 0-7.19 2.748-9.145 5.974v-15.912zM1674.358 727.43c5.868 0 8.827 2.802 11.47 6.715l4.493-3.066c-3.171-5.447-9.357-8.619-15.806-8.619-11.524 0-18.82 8.565-18.82 19.613 0 10.943 7.139 18.875 17.077 18.875 5.602 0 10.465-2.59 13.11-7.771l.211 7.03h4.283v-19.084h-13.851v4.863h9.093c-1.164 6.979-5.764 10.096-11.578 10.096-7.983 0-12.74-5.762-12.74-14.378s4.757-14.275 13.058-14.275M1707.9 744.664c-6.185.106-9.992 2.645-9.992 8.14 0 5.024 3.753 8.038 8.83 8.038 4.492 0 7.61-2.063 9.146-5.023.158 2.06.418 3.54.581 4.388h4.97c-.636-1.586-.902-3.753-.95-6.131v-10.31c0-5.869-3.227-10.626-10.84-10.626-7.137 0-11.05 4.388-11.525 8.564h5.233c.212-1.903 2.01-4.282 6.237-4.282 3.753 0 6.083 2.01 6.083 6.343v.793l-7.772.106Zm7.772 7.033c-1.325 3.066-4.073 4.915-7.722 4.915-2.906 0-5.021-1.428-5.021-4.019 0-2.642 2.064-3.647 5.02-3.698l7.723-.106zM1729.184 723.202h5.078v37.005h-5.078zM1743.234 723.202h5.078v37.005h-5.078zM1780.076 746.092c0-7.877-4.763-12.952-11.79-12.952-7.457 0-12.529 5.656-12.529 13.903s5.072 13.8 12.79 13.8c6.348 0 10.313-3.756 11.317-8.565h-5.023c-.847 2.59-3.014 4.176-6.24 4.176-4.546 0-7.614-3.277-7.826-9.04h19.247c.054-.74.054-1.164.054-1.322m-18.769-2.908c.581-3.435 3.384-5.814 6.979-5.814 3.486 0 6.022 2.167 6.343 5.814zM1787.56 733.775v26.432h5.077v-13.482c0-4.597 2.803-8.934 5.763-8.934 1.851 0 2.856 1.269 2.856 3.65v1.108h4.334c.054-.315.054-1.056.054-1.955 0-4.758-2.118-7.454-5.816-7.454-2.7 0-5.127 1.903-7.245 5.71v-5.075zM1814.138 764.647h-4.975v4.548h5.925c4.388 0 6.555-1.27 7.984-5.13l11.1-30.29h-5.338l-6.876 20.722-6.924-20.722h-5.447l9.835 26.801-.527 1.374c-.901 2.327-2.01 2.697-4.757 2.697M1283.061 1608.265c0-5.762-3.91-8.565-10.834-9.884l-7.087-1.374c-5.018-.956-7.772-2.433-7.772-5.344 0-3.063 2.542-5.23 8.516-5.23 5.441 0 9.775 1.955 14.006 4.388l2.118-4.55c-4.128-2.325-9.146-4.807-15.755-4.807-9.145 0-14.49 4.176-14.49 10.78 0 5.605 4.074 8.358 12.003 9.944l7.348 1.477c4.388.902 6.294 2.325 6.294 5.078 0 4.388-4.442 6.234-9.678 6.234-6.5 0-11.415-3.014-15.38-6.446l-3.226 4.28c3.384 3.117 9.727 7.136 18.557 7.136 9.195 0 15.38-4.122 15.38-11.682ZM1313.854 1606.044c0-8.195-5.072-13.903-12.42-13.903-7.3 0-12.372 5.708-12.372 13.903 0 8.14 5.073 13.8 12.372 13.8 7.348 0 12.42-5.66 12.42-13.8m-19.61 0c0-5.92 2.693-9.515 7.19-9.515 4.491 0 7.239 3.595 7.239 9.515 0 5.87-2.748 9.411-7.24 9.411-4.496 0-7.19-3.54-7.19-9.411M1338.792 1613.815v5.393h5.018v-26.432h-5.072v13.214c0 5.713-3.862 9.254-7.56 9.254-3.438 0-5.127-2.113-5.127-7.403v-15.065h-5.078v16.809c0 6.506 3.069 10.259 8.62 10.259 3.964 0 7.238-2.748 9.199-6.029ZM1355.106 1586.645v6.131h-5.18v4.231h5.18v16.015c0 4.285 2.482 6.186 7.294 6.186h5.235v-4.388h-4.073c-2.748 0-3.384-.95-3.384-2.905v-14.908h5.974v-4.23h-5.974v-9.515zM1373.75 1582.203v37.005h5.078v-13.218c0-5.708 3.861-9.25 7.56-9.25 3.437 0 5.126 2.114 5.126 7.403v15.065h5.078v-16.814c0-6.5-3.068-10.253-8.619-10.253-3.964 0-7.19 2.748-9.145 5.974v-15.912zM1254.343 1653.167c5.871 0 8.83 2.802 11.476 6.712l4.49-3.068c-3.17-5.442-9.356-8.613-15.803-8.613-11.53 0-18.823 8.564-18.823 19.61 0 10.943 7.136 18.872 17.075 18.872 5.604 0 10.47-2.59 13.11-7.771l.211 7.033h4.285v-19.084h-13.854v4.86h9.097c-1.162 6.979-5.762 10.102-11.578 10.102-7.984 0-12.741-5.762-12.741-14.381s4.757-14.272 13.055-14.272ZM1287.89 1670.399c-6.186.108-9.993 2.644-9.993 8.14 0 5.024 3.752 8.038 8.83 8.038 4.491 0 7.609-2.064 9.146-5.024.157 2.064.418 3.541.58 4.388h4.97c-.635-1.585-.902-3.752-.95-6.13v-10.309c0-5.87-3.226-10.628-10.84-10.628-7.136 0-11.052 4.389-11.524 8.565h5.235c.206-1.9 2.004-4.285 6.234-4.285 3.753 0 6.083 2.01 6.083 6.349v.792zm7.77 7.032c-1.324 3.063-4.072 4.915-7.722 4.915-2.905 0-5.018-1.428-5.018-4.019 0-2.639 2.058-3.644 5.018-3.698l7.723-.109zM1309.167 1648.936h5.078v37.005h-5.078zM1323.222 1648.936h5.078v37.005h-5.078zM1335.745 1672.777c0 8.25 5.073 13.8 12.79 13.8 6.349 0 10.313-3.753 11.318-8.565h-5.024c-.847 2.59-3.014 4.177-6.24 4.177-4.545 0-7.614-3.28-7.826-9.043h19.247c.054-.738.054-1.162.054-1.32 0-7.874-4.762-12.952-11.79-12.952-7.456 0-12.529 5.66-12.529 13.903m18.872-3.856h-13.321c.58-3.437 3.383-5.816 6.978-5.816 3.487 0 6.023 2.167 6.343 5.816M1367.548 1659.51v26.431h5.078v-13.479c0-4.6 2.802-8.933 5.762-8.933 1.852 0 2.857 1.265 2.857 3.644v1.113h4.333c.055-.32.055-1.059.055-1.955 0-4.763-2.118-7.457-5.817-7.457-2.699 0-5.126 1.901-7.244 5.708v-5.072zM1394.126 1690.384h-4.974v4.546h5.925c4.388 0 6.555-1.271 7.983-5.127l11.1-30.293h-5.338l-6.875 20.724-6.925-20.724h-5.447l9.835 26.8-.526 1.375c-.902 2.33-2.01 2.699-4.758 2.699M762.597 1134.402h5.658l3.226-9.358h16.124l3.118 9.358h5.92l-12.796-37.006h-8.032zm23.417-14.272H773.17l6.5-19.084zM825.8 1134.402v-16.814c0-6.5-3.068-10.253-8.619-10.253-3.964 0-7.245 2.748-9.2 6.028v-5.393h-5.023v26.432h5.078v-13.219c0-5.708 3.861-9.248 7.56-9.248 3.437 0 5.126 2.112 5.126 7.402v15.065zM857.13 1134.402v-37.006h-5.078v15.967c-2.27-3.807-5.653-6.028-9.303-6.028-6.13 0-9.569 5.816-9.569 13.745 0 7.983 3.487 13.848 9.673 13.848 3.65 0 6.978-2.22 9.254-6.185v5.659zm-12.795-3.965c-3.595 0-6.028-3.171-6.028-9.357 0-6.082 2.324-9.254 5.92-9.254 3.225 0 8.037 3.492 8.037 9.308 0 5.762-4.654 9.303-7.929 9.303M884.121 1116.746c.055-.32.055-1.059.055-1.955 0-4.763-2.118-7.456-5.817-7.456-2.699 0-5.127 1.9-7.245 5.707v-5.072h-5.023v26.432h5.078v-13.48c0-4.6 2.802-8.933 5.762-8.933 1.852 0 2.856 1.265 2.856 3.644v1.113zM913.55 1120.287c0-7.88-4.762-12.952-11.79-12.952-7.456 0-12.528 5.659-12.528 13.903 0 8.249 5.072 13.8 12.79 13.8 6.348 0 10.312-3.754 11.317-8.565h-5.024c-.847 2.59-3.014 4.176-6.24 4.176-4.545 0-7.614-3.28-7.825-9.042h19.246c.055-.739.055-1.162.055-1.32m-18.768-2.905c.58-3.438 3.383-5.817 6.978-5.817 3.487 0 6.023 2.167 6.344 5.817zM944.56 1134.402h5.925l8.722-26.432h-5.338l-6.24 21.196-6.398-21.196h-5.653l-6.452 21.196-6.186-21.196h-5.447l8.516 26.432h5.92l6.397-20.3zM1008.752 1108.23c0-6.391-4.388-10.834-11.893-10.834h-17.183v37.006h5.393v-14.853h11.209c7.614 0 12.474-4.6 12.474-11.318m-23.683 6.35v-12.426h10.676c4.92 0 7.457 2.378 7.457 6.077 0 3.97-2.905 6.348-8.086 6.348zM1037.54 1120.287c0-7.88-4.762-12.952-11.79-12.952-7.456 0-12.528 5.659-12.528 13.903 0 8.249 5.072 13.8 12.79 13.8 6.348 0 10.313-3.754 11.317-8.565h-5.023c-.847 2.59-3.014 4.176-6.24 4.176-4.546 0-7.614-3.28-7.826-9.042h19.247c.054-.739.054-1.162.054-1.32m-18.768-2.905c.581-3.438 3.383-5.817 6.979-5.817 3.486 0 6.022 2.167 6.343 5.817zM1054.382 1134.402h5.235v-4.388h-4.073c-2.748 0-3.384-.95-3.384-2.906v-14.907h5.974v-4.231h-5.974v-9.515l-5.072 3.384v6.131h-5.18v4.23h5.18v16.016c0 4.285 2.482 6.186 7.294 6.186M1075.888 1134.402h5.235v-4.388h-4.073c-2.748 0-3.383-.95-3.383-2.906v-14.907h5.973v-4.231h-5.974v-9.515l-5.072 3.384v6.131h-5.18v4.23h5.18v16.016c0 4.285 2.482 6.186 7.294 6.186M1109.656 1120.287c0-7.88-4.762-12.952-11.79-12.952-7.456 0-12.529 5.659-12.529 13.903 0 8.249 5.073 13.8 12.79 13.8 6.348 0 10.313-3.754 11.318-8.565h-5.024c-.847 2.59-3.014 4.176-6.24 4.176-4.545 0-7.614-3.28-7.826-9.042h19.247c.054-.739.054-1.162.054-1.32m-18.768-2.905c.58-3.438 3.383-5.817 6.978-5.817 3.487 0 6.023 2.167 6.343 5.817zM1135.165 1116.746c.054-.32.054-1.059.054-1.955 0-4.763-2.118-7.456-5.816-7.456-2.7 0-5.127 1.9-7.245 5.707v-5.072h-5.024v26.432h5.078v-13.48c0-4.6 2.803-8.933 5.762-8.933 1.852 0 2.857 1.265 2.857 3.644v1.113zM935.399 1201.135v-37.005h-5.393v15.488h-19.877v-15.488h-5.393v37.005h5.393v-16.439h19.877v16.44zM953.983 1185.592c-6.186.109-9.993 2.645-9.993 8.141 0 5.024 3.753 8.038 8.83 8.038 4.492 0 7.61-2.064 9.146-5.024.158 2.064.418 3.541.581 4.388h4.97c-.636-1.586-.902-3.753-.951-6.131v-10.308c0-5.87-3.226-10.628-10.84-10.628-7.136 0-11.051 4.388-11.524 8.565h5.235c.207-1.901 2.004-4.285 6.235-4.285 3.753 0 6.082 2.01 6.082 6.348v.793zm7.771 7.033c-1.325 3.063-4.073 4.915-7.722 4.915-2.906 0-5.018-1.428-5.018-4.019 0-2.64 2.058-3.644 5.018-3.698l7.722-.109zM975.261 1164.13h5.078v37.005h-5.078zM989.316 1164.13h5.078v37.005h-5.078zM355.722 683.682h14.169v32.036h5.393v-32.036h14.163v-4.97h-33.725zM390.273 689.286v16.809c0 6.506 3.068 10.258 8.618 10.258 3.97 0 7.245-2.748 9.2-6.028v5.393h5.024v-26.432h-5.073V702.5c0 5.713-3.866 9.254-7.565 9.254-3.438 0-5.127-2.113-5.127-7.403v-15.065zM433.078 688.65c-7.462 0-12.534 5.66-12.534 13.904 0 8.25 5.072 13.8 12.795 13.8 6.343 0 10.307-3.753 11.312-8.565h-5.023c-.848 2.59-3.01 4.176-6.235 4.176-4.551 0-7.614-3.28-7.826-9.042h19.241c.055-.739.055-1.162.055-1.32 0-7.874-4.758-12.952-11.785-12.952Zm-6.984 10.048c.587-3.438 3.389-5.817 6.984-5.817 3.487 0 6.023 2.167 6.343 5.817zM453.194 720.16h-4.964v4.546h5.92c4.388 0 6.555-1.27 7.983-5.127l11.1-30.293h-5.344l-6.87 20.724-6.924-20.724h-5.441l9.83 26.801-.533 1.374c-.896 2.33-2.01 2.7-4.757 2.7M502.864 678.713l-13.219 37.005h5.66l3.225-9.357h16.119l3.122 9.357h5.92l-12.79-37.005zm-2.645 22.733 6.5-19.084 6.344 19.084zM530.012 689.286v26.432h5.078v-13.48c0-4.6 2.802-8.933 5.757-8.933 1.852 0 2.856 1.266 2.856 3.644v1.114h4.334c.054-.32.054-1.06.054-1.956 0-4.762-2.118-7.456-5.81-7.456-2.7 0-5.133 1.9-7.245 5.708v-5.073zM557.856 683.155v6.131h-5.181v4.23h5.18v16.016c0 4.285 2.488 6.186 7.294 6.186h5.236v-4.388h-4.068c-2.753 0-3.389-.95-3.389-2.906v-14.907h5.974v-4.23h-5.974v-9.515zM384.538 755.485c0 5.604 4.073 8.352 12.002 9.944l7.353 1.477c4.383.901 6.289 2.324 6.289 5.078 0 4.388-4.443 6.234-9.678 6.234-6.5 0-11.415-3.014-15.38-6.446l-3.226 4.28c3.384 3.117 9.727 7.135 18.552 7.135 9.2 0 15.385-4.122 15.385-11.681 0-5.762-3.91-8.565-10.834-9.884l-7.082-1.374c-5.029-.956-7.777-2.433-7.777-5.344 0-3.063 2.542-5.23 8.516-5.23 5.441 0 9.775 1.955 14.006 4.388l2.112-4.55c-4.116-2.325-9.145-4.807-15.749-4.807-9.145 0-14.49 4.176-14.49 10.78ZM419.355 760.248h5.18v16.015c0 4.285 2.482 6.186 7.294 6.186h5.235v-4.388h-4.073c-2.748 0-3.378-.95-3.378-2.906v-14.907h5.974v-4.231h-5.974v-9.515l-5.078 3.384v6.131h-5.18zM442.756 756.017v16.808c0 6.507 3.068 10.26 8.618 10.26 3.97 0 7.245-2.749 9.2-6.029v5.393h5.024v-26.432h-5.073v13.213c0 5.714-3.866 9.254-7.565 9.254-3.437 0-5.126-2.112-5.126-7.402v-15.065zM473.244 769.127c0 7.983 3.487 13.849 9.672 13.849 3.644 0 6.979-2.216 9.249-6.186v5.659h5.023v-37.006h-5.077v15.967c-2.27-3.807-5.654-6.028-9.298-6.028-6.137 0-9.569 5.816-9.569 13.745m19.084.054c0 5.762-4.654 9.303-7.929 9.303-3.595 0-6.028-3.171-6.028-9.357 0-6.082 2.324-9.254 5.92-9.254 3.225 0 8.037 3.492 8.037 9.308M505.623 745.443h6.289v6.343h-6.289zM506.209 756.017h5.072v26.432h-5.072zM518.57 769.285c0 8.14 5.072 13.8 12.37 13.8 7.343 0 12.421-5.66 12.421-13.8 0-8.196-5.078-13.903-12.42-13.903-7.3 0-12.372 5.708-12.372 13.903m12.37-9.515c4.492 0 7.24 3.595 7.24 9.514 0 5.871-2.748 9.412-7.24 9.412-4.496 0-7.19-3.54-7.19-9.412 0-5.92 2.694-9.514 7.19-9.514M678.267 1474.239v32.986h5.29v-37.005h-9.043l-10.095 29.288-10.205-29.288h-8.776v37.005h5.127v-32.829l11.317 32.83h4.915zM716.299 1493.11c0-7.88-4.763-12.952-11.79-12.952-7.457 0-12.529 5.659-12.529 13.903 0 8.25 5.072 13.8 12.79 13.8 6.348 0 10.313-3.753 11.317-8.565h-5.023c-.847 2.59-3.014 4.176-6.24 4.176-4.546 0-7.614-3.28-7.826-9.042h19.247c.054-.738.054-1.162.054-1.32m-18.769-2.905c.581-3.438 3.384-5.816 6.979-5.816 3.486 0 6.023 2.167 6.343 5.816zM732.032 1507.752c3.65 0 6.979-2.221 9.254-6.186v5.66h5.024v-37.006h-5.078v15.966c-2.27-3.807-5.654-6.028-9.303-6.028-6.131 0-9.57 5.816-9.57 13.745 0 7.984 3.488 13.849 9.673 13.849m1.374-23.103c3.226 0 8.038 3.492 8.038 9.309 0 5.762-4.655 9.303-7.93 9.303-3.595 0-6.028-3.172-6.028-9.358 0-6.082 2.325-9.254 5.92-9.254M755.325 1480.793h5.078v26.432h-5.078zM754.744 1470.22h6.294v6.343h-6.294zM777.835 1491.682c-6.186.109-9.992 2.645-9.992 8.14 0 5.024 3.752 8.039 8.83 8.039 4.491 0 7.609-2.064 9.145-5.024.158 2.064.419 3.54.582 4.388h4.969c-.636-1.586-.902-3.753-.956-6.131v-10.308c0-5.87-3.22-10.628-10.834-10.628-7.136 0-11.052 4.388-11.524 8.564h5.235c.212-1.9 2.004-4.284 6.234-4.284 3.753 0 6.083 2.009 6.083 6.348v.793zm7.772 7.033c-1.325 3.063-4.073 4.915-7.723 4.915-2.905 0-5.018-1.428-5.018-4.019 0-2.64 2.058-3.644 5.018-3.698l7.723-.109zM647.534 1541.184c5.871 0 8.83 2.802 11.476 6.712l4.491-3.068c-3.172-5.442-9.357-8.613-15.804-8.613-11.53 0-18.823 8.564-18.823 19.61 0 10.943 7.136 18.872 17.075 18.872 5.604 0 10.47-2.59 13.11-7.771l.211 7.033h4.285v-19.084h-13.854v4.86h9.097c-1.162 6.98-5.762 10.102-11.578 10.102-7.984 0-12.741-5.762-12.741-14.38s4.757-14.273 13.056-14.273ZM681.08 1558.416c-6.185.108-9.992 2.645-9.992 8.14 0 5.024 3.753 8.038 8.83 8.038 4.492 0 7.609-2.064 9.146-5.023.157 2.063.418 3.54.58 4.388h4.97c-.635-1.586-.901-3.753-.956-6.132v-10.307c0-5.871-3.22-10.628-10.834-10.628-7.136 0-11.052 4.388-11.524 8.564h5.235c.212-1.9 2.004-4.285 6.235-4.285 3.752 0 6.082 2.01 6.082 6.349v.793zm7.772 7.033c-1.325 3.063-4.073 4.914-7.723 4.914-2.905 0-5.018-1.428-5.018-4.018 0-2.64 2.059-3.644 5.018-3.699l7.723-.108zM702.358 1536.953h5.078v37.005h-5.078zM716.413 1536.953h5.078v37.005h-5.078zM753.256 1559.844c0-7.88-4.763-12.952-11.79-12.952-7.457 0-12.53 5.659-12.53 13.902 0 8.25 5.073 13.8 12.79 13.8 6.349 0 10.313-3.753 11.318-8.564h-5.024c-.847 2.59-3.014 4.176-6.24 4.176-4.545 0-7.614-3.28-7.826-9.042h19.247c.054-.739.054-1.163.054-1.32m-18.77-2.905c.582-3.438 3.384-5.817 6.98-5.817 3.486 0 6.022 2.167 6.343 5.817zM760.74 1547.527v26.432h5.077v-13.48c0-4.6 2.802-8.933 5.762-8.933 1.852 0 2.857 1.265 2.857 3.644v1.113h4.333c.055-.32.055-1.059.055-1.955 0-4.763-2.118-7.456-5.817-7.456-2.699 0-5.126 1.9-7.244 5.707v-5.072zM787.317 1578.401h-4.974v4.546h5.925c4.388 0 6.555-1.271 7.983-5.127l11.1-30.293h-5.338l-6.875 20.724-6.925-20.724h-5.447l9.836 26.8-.527 1.375c-.902 2.33-2.01 2.699-4.758 2.699M2665.56 1435.99c-6.5 0-11.415-3.01-15.38-6.447l-3.226 4.285c3.384 3.117 9.727 7.136 18.557 7.136 9.195 0 15.38-4.127 15.38-11.687 0-5.757-3.91-8.559-10.834-9.884l-7.087-1.374c-5.018-.95-7.772-2.428-7.772-5.338 0-3.063 2.542-5.236 8.516-5.236 5.441 0 9.775 1.955 14.006 4.388l2.118-4.545c-4.128-2.33-9.146-4.812-15.755-4.812-9.145 0-14.49 4.176-14.49 10.786 0 5.604 4.074 8.352 12.003 9.938l7.348 1.482c4.388.897 6.294 2.325 6.294 5.073 0 4.388-4.442 6.234-9.678 6.234ZM2711.374 1440.226v-16.814c0-6.506-3.068-10.253-8.618-10.253-3.965 0-7.19 2.747-9.146 5.973v-15.912h-5.077v37.006h5.077v-13.219c0-5.713 3.862-9.254 7.56-9.254 3.438 0 5.127 2.118 5.127 7.402v15.07zM2730.86 1440.856c7.348 0 12.42-5.66 12.42-13.795 0-8.195-5.072-13.903-12.42-13.903-7.299 0-12.371 5.708-12.371 13.903 0 8.136 5.072 13.794 12.371 13.794m0-23.31c4.491 0 7.24 3.596 7.24 9.515 0 5.865-2.749 9.406-7.24 9.406-4.497 0-7.19-3.54-7.19-9.406 0-5.92 2.693-9.514 7.19-9.514M2750.764 1413.789v35.42h5.078v-14.534c2.275 3.856 5.604 6.077 9.2 6.077 6.185 0 9.672-5.87 9.672-13.854 0-7.928-3.438-13.74-9.57-13.74-3.649 0-7.081 2.216-9.356 6.078v-5.448zm12.903 3.86c3.596 0 5.92 3.172 5.92 9.25 0 6.19-2.433 9.362-6.028 9.362-3.275 0-7.929-3.546-7.929-9.308 0-5.811 4.812-9.303 8.038-9.303ZM1720.701 1549.71v37.006h25.112v-4.97h-19.719v-32.036zM1751.445 1549.71h6.294v6.343h-6.294zM1752.026 1560.284h5.078v26.432h-5.078zM1766.135 1549.71v37.006h5.024v-5.654c2.275 3.965 5.604 6.186 9.254 6.186 6.186 0 9.672-5.87 9.672-13.854 0-7.929-3.438-13.745-9.569-13.745-3.644 0-7.033 2.22-9.303 6.028v-15.967zm12.904 14.435c3.595 0 5.92 3.172 5.92 9.249 0 6.185-2.434 9.357-6.029 9.357-3.275 0-7.929-3.54-7.929-9.303 0-5.816 4.812-9.303 8.038-9.303M1815.81 1569.06c.055-.315.055-1.059.055-1.955 0-4.757-2.118-7.456-5.816-7.456-2.7 0-5.127 1.906-7.245 5.713v-5.078h-5.024v26.431h5.078v-13.479c0-4.6 2.802-8.933 5.762-8.933 1.852 0 2.857 1.265 2.857 3.65v1.107zM1831.125 1571.173c-6.185.108-9.992 2.645-9.992 8.14 0 5.024 3.752 8.038 8.83 8.038 4.492 0 7.609-2.064 9.146-5.023.157 2.063.418 3.54.58 4.388h4.97c-.635-1.586-.901-3.753-.956-6.132v-10.307c0-5.871-3.22-10.628-10.834-10.628-7.136 0-11.052 4.388-11.524 8.564h5.235c.212-1.9 2.004-4.28 6.235-4.28 3.752 0 6.082 2.01 6.082 6.344v.793zm7.772 7.033c-1.325 3.068-4.073 4.914-7.723 4.914-2.905 0-5.018-1.428-5.018-4.018 0-2.64 2.059-3.645 5.018-3.699l7.723-.103zM1870.488 1569.06c.054-.315.054-1.059.054-1.955 0-4.757-2.118-7.456-5.816-7.456-2.7 0-5.127 1.906-7.245 5.713v-5.078h-5.024v26.431h5.078v-13.479c0-4.6 2.802-8.933 5.762-8.933 1.852 0 2.857 1.265 2.857 3.65v1.107zM1879.036 1591.158h-4.975v4.546h5.925c4.388 0 6.555-1.271 7.983-5.127l11.101-30.293h-5.338l-6.876 20.724-6.924-20.724h-5.447l9.835 26.8-.527 1.375c-.901 2.33-2.01 2.699-4.757 2.699M1562.21 1380.248c-6.502 0-11.416-3.014-15.38-6.452l-3.227 4.285c3.384 3.117 9.727 7.136 18.557 7.136 9.195 0 15.38-4.122 15.38-11.682 0-5.762-3.91-8.564-10.834-9.889l-7.087-1.374c-5.018-.95-7.772-2.428-7.772-5.338 0-3.063 2.542-5.236 8.516-5.236 5.441 0 9.775 1.96 14.006 4.388l2.118-4.545c-4.128-2.325-9.146-4.812-15.755-4.812-9.145 0-14.49 4.176-14.49 10.786 0 5.604 4.074 8.352 12.003 9.938l7.348 1.482c4.388.897 6.294 2.325 6.294 5.073 0 4.388-4.442 6.24-9.678 6.24M1593.534 1368.936c-6.186.103-9.993 2.644-9.993 8.14 0 5.024 3.753 8.038 8.83 8.038 4.492 0 7.61-2.064 9.146-5.024a38 38 0 0 0 .581 4.389h4.97c-.636-1.586-.902-3.753-.95-6.132v-10.313c0-5.865-3.227-10.623-10.84-10.623-7.137 0-11.052 4.388-11.525 8.565h5.236c.206-1.906 2.004-4.285 6.234-4.285 3.753 0 6.083 2.01 6.083 6.343v.793zm7.771 7.033c-1.325 3.062-4.073 4.914-7.722 4.914-2.906 0-5.018-1.428-5.018-4.018 0-2.645 2.058-3.65 5.018-3.699l7.722-.108zM1614.817 1347.473h5.078v37.005h-5.078zM1627.286 1371.314c0 8.141 5.073 13.8 12.372 13.8 7.348 0 12.42-5.659 12.42-13.8 0-8.195-5.073-13.903-12.42-13.903-7.3 0-12.372 5.708-12.372 13.903m19.61 0c0 5.865-2.747 9.412-7.238 9.412-4.497 0-7.19-3.546-7.19-9.412 0-5.92 2.693-9.514 7.19-9.514 4.49 0 7.239 3.595 7.239 9.514M1682.354 1384.479v-16.814c0-6.5-3.068-10.253-8.618-10.253-3.965 0-7.245 2.747-9.2 6.022v-5.387h-5.024v26.431h5.078v-13.218c0-5.708 3.861-9.249 7.56-9.249 3.438 0 5.127 2.113 5.127 7.397v15.07zM648.659 504.92l3.122 9.356h5.92l-12.79-37.005h-8.037l-13.219 37.005h5.66l3.225-9.357zm-7.93-24 6.344 19.084h-12.844zM663.333 487.845v16.808c0 6.506 3.063 10.259 8.613 10.259 3.97 0 7.244-2.748 9.2-6.028v5.392h5.028v-26.431h-5.077v13.213c0 5.713-3.862 9.254-7.56 9.254-3.438 0-5.132-2.113-5.132-7.402v-15.065zM717.76 514.277V477.27h-5.072v15.967c-2.27-3.807-5.66-6.029-9.303-6.029-6.132 0-9.57 5.817-9.57 13.746 0 7.983 3.493 13.848 9.673 13.848 3.65 0 6.978-2.221 9.254-6.186v5.66zm-12.79-3.965c-3.595 0-6.028-3.172-6.028-9.357 0-6.083 2.33-9.254 5.925-9.254 3.22 0 8.032 3.492 8.032 9.308 0 5.762-4.654 9.303-7.929 9.303M735.345 498.734c-6.18.108-9.993 2.644-9.993 8.14 0 5.024 3.758 8.038 8.83 8.038 4.497 0 7.615-2.064 9.146-5.024.163 2.064.424 3.541.581 4.389h4.97c-.63-1.586-.902-3.753-.951-6.132v-10.307c0-5.871-3.226-10.628-10.834-10.628-7.137 0-11.052 4.388-11.525 8.564h5.23c.212-1.9 2.01-4.285 6.24-4.285 3.753 0 6.077 2.01 6.077 6.349v.793zm7.771 7.032c-1.32 3.063-4.067 4.915-7.717 4.915-2.91 0-5.023-1.428-5.023-4.019 0-2.639 2.063-3.644 5.023-3.698l7.717-.109zM756.047 477.271h6.289v6.343h-6.289zM756.634 487.845h5.072v26.432h-5.072zM770.688 487.845v26.431h5.073v-13.218c0-5.708 3.856-9.249 7.56-9.249 3.432 0 5.126 2.113 5.126 7.402v15.065h5.073v-16.813c0-6.5-3.063-10.254-8.614-10.254-3.964 0-7.244 2.748-9.2 6.029v-5.393zM824.415 498.734c-6.186.108-9.987 2.644-9.987 8.14 0 5.024 3.747 8.038 8.825 8.038 4.491 0 7.614-2.064 9.145-5.024a39 39 0 0 0 .581 4.389h4.97c-.636-1.586-.896-3.753-.95-6.132v-10.307c0-5.871-3.227-10.628-10.84-10.628-7.137 0-11.047 4.388-11.525 8.564h5.236c.211-1.9 2.009-4.285 6.234-4.285 3.758 0 6.083 2.01 6.083 6.349v.793zm7.772 7.032c-1.32 3.063-4.074 4.915-7.718 4.915-2.905 0-5.023-1.428-5.023-4.019 0-2.639 2.064-3.644 5.024-3.698l7.717-.109zM845.753 487.845v26.431h5.077v-13.218c0-5.708 3.862-9.249 7.56-9.249 3.438 0 5.127 2.113 5.127 7.402v15.065h5.078v-16.813c0-6.5-3.069-10.254-8.619-10.254-3.964 0-7.24 2.748-9.2 6.029v-5.393zM894.847 493.238c-2.275-3.807-5.659-6.029-9.308-6.029-6.132 0-9.57 5.817-9.57 13.746 0 7.983 3.493 13.848 9.678 13.848 3.65 0 6.979-2.221 9.254-6.186v5.66h5.018V477.27h-5.072zm-7.723 17.074c-3.595 0-6.028-3.172-6.028-9.357 0-6.083 2.33-9.254 5.925-9.254 3.22 0 8.032 3.492 8.032 9.308 0 5.762-4.648 9.303-7.929 9.303M923.679 477.271v37.006h5.393v-13.268l7.771-7.51 12.898 20.778h6.452l-15.434-24.374 12.844-12.632h-6.925l-17.606 17.601v-17.6zM969.748 498.734c-6.18.108-9.987 2.644-9.987 8.14 0 5.024 3.753 8.038 8.825 8.038 4.497 0 7.614-2.064 9.146-5.024a39 39 0 0 0 .586 4.389h4.964c-.63-1.586-.896-3.753-.945-6.132v-10.307c0-5.871-3.226-10.628-10.84-10.628-7.136 0-11.046 4.388-11.524 8.564h5.235c.207-1.9 2.01-4.285 6.235-4.285 3.758 0 6.082 2.01 6.082 6.349v.793zm7.777 7.032c-1.325 3.063-4.073 4.915-7.722 4.915-2.906 0-5.018-1.428-5.018-4.019 0-2.639 2.063-3.644 5.018-3.698l7.722-.109zM991.091 487.845v26.431h5.073v-13.479c0-4.6 2.802-8.933 5.767-8.933 1.847 0 2.852 1.265 2.852 3.644v1.113h4.339c.049-.32.049-1.059.049-1.955 0-4.763-2.113-7.457-5.817-7.457-2.694 0-5.127 1.901-7.245 5.708v-5.072zM1024.431 498.734c-6.186.108-9.987 2.644-9.987 8.14 0 5.024 3.747 8.038 8.825 8.038 4.491 0 7.614-2.064 9.145-5.024a39 39 0 0 0 .581 4.389h4.97c-.636-1.586-.897-3.753-.95-6.132v-10.307c0-5.871-3.227-10.628-10.84-10.628-7.137 0-11.047 4.388-11.525 8.564h5.236c.211-1.9 2.009-4.285 6.234-4.285 3.758 0 6.083 2.01 6.083 6.349v.793zm7.771 7.032c-1.32 3.063-4.073 4.915-7.717 4.915-2.905 0-5.023-1.428-5.023-4.019 0-2.639 2.063-3.644 5.023-3.698l7.717-.109zM1055.229 510.578c-3.432 0-6.18-1.374-6.55-4.23h-5.077c.526 4.914 4.811 8.564 11.524 8.564 6.452 0 10.416-3.492 10.416-8.298 0-3.704-2.379-6.61-7.348-7.614l-4.55-.902c-3.01-.58-4.014-1.586-4.014-3.226 0-1.955 1.689-3.486 4.969-3.486 3.432 0 5.338 1.743 5.605 3.91h5.072c-.739-4.703-4.388-8.086-10.465-8.086-6.028 0-10.15 3.383-10.15 8.037 0 3.644 2.487 6.289 7.396 7.397l4.497 1.004c3.28.744 4.073 1.907 4.073 3.28 0 2.113-1.803 3.65-5.398 3.65M1081.536 498.734c-6.18.108-9.988 2.644-9.988 8.14 0 5.024 3.753 8.038 8.825 8.038 4.497 0 7.614-2.064 9.151-5.024.158 2.064.419 3.541.582 4.389h4.969c-.636-1.586-.902-3.753-.95-6.132v-10.307c0-5.871-3.227-10.628-10.84-10.628-7.137 0-11.047 4.388-11.525 8.564h5.236c.206-1.9 2.01-4.285 6.234-4.285 3.753 0 6.083 2.01 6.083 6.349v.793zm7.777 7.032c-1.326 3.063-4.074 4.915-7.723 4.915-2.905 0-5.018-1.428-5.018-4.019 0-2.639 2.064-3.644 5.018-3.698l7.723-.109zM1120.007 493.976l6.235 20.3h5.925l8.722-26.431h-5.339l-6.24 21.196-6.397-21.196h-5.654l-6.451 21.196-6.186-21.196h-5.447l8.515 26.432h5.92zM1154.976 498.734c-6.186.108-9.992 2.644-9.992 8.14 0 5.024 3.752 8.038 8.83 8.038 4.491 0 7.609-2.064 9.145-5.024.158 2.064.419 3.541.582 4.389h4.969c-.636-1.586-.902-3.753-.95-6.132v-10.307c0-5.871-3.226-10.628-10.84-10.628-7.136 0-11.052 4.388-11.524 8.564h5.235c.206-1.9 2.004-4.285 6.234-4.285 3.753 0 6.083 2.01 6.083 6.349v.793zm7.772 7.032c-1.325 3.063-4.073 4.915-7.723 4.915-2.905 0-5.018-1.428-5.018-4.019 0-2.639 2.058-3.644 5.018-3.698l7.723-.109zM787.057 581.749c7.45 0 13.587-4.758 15.597-11.1l-4.92-1.744c-1.423 4.649-5.018 7.874-10.52 7.874-7.88 0-12.268-6.022-12.268-14.43 0-8.564 4.763-14.114 12.268-14.114 5.974 0 9.097 3.753 10.362 7.505l5.127-1.9c-2.221-6.137-8.25-10.574-15.489-10.574-10.78 0-17.867 8.14-17.867 19.296 0 11.627 6.979 19.187 17.71 19.187M808.389 567.846c0 8.14 5.072 13.8 12.371 13.8 7.342 0 12.42-5.66 12.42-13.8 0-8.195-5.077-13.903-12.42-13.903-7.299 0-12.371 5.708-12.371 13.903m12.371-9.515c4.492 0 7.24 3.595 7.24 9.515 0 5.87-2.749 9.411-7.24 9.411-4.496 0-7.19-3.54-7.19-9.411 0-5.92 2.694-9.515 7.19-9.515M840.3 554.578v16.809c0 6.506 3.063 10.258 8.613 10.258 3.965 0 7.245-2.748 9.2-6.028v5.393h5.024v-26.432h-5.078v13.214c0 5.713-3.856 9.254-7.56 9.254-3.432 0-5.127-2.113-5.127-7.403v-15.065zM872.103 581.01h5.072v-13.48c0-4.6 2.803-8.933 5.762-8.933 1.852 0 2.852 1.266 2.852 3.644v1.114h4.339c.049-.32.049-1.06.049-1.956 0-4.762-2.113-7.456-5.811-7.456-2.694 0-5.127 1.9-7.245 5.708v-5.073h-5.018zM899.941 548.447v6.131h-5.181v4.231h5.181v16.015c0 4.285 2.487 6.186 7.299 6.186h5.235v-4.388h-4.073c-2.748 0-3.383-.95-3.383-2.905v-14.908h5.974v-4.23h-5.974v-9.515zM920.757 585.452h-4.969v4.546h5.92c4.388 0 6.56-1.27 7.983-5.127l11.1-30.293h-5.338l-6.87 20.724-6.93-20.724h-5.441l9.83 26.801-.527 1.374c-.897 2.33-2.01 2.7-4.758 2.7M945.114 562.507h5.23c.212-1.9 2.01-4.285 6.24-4.285 3.753 0 6.077 2.01 6.077 6.349v.793l-7.771.103c-6.18.109-9.993 2.645-9.993 8.14 0 5.024 3.758 8.038 8.83 8.038 4.497 0 7.614-2.063 9.146-5.023.163 2.064.423 3.54.581 4.388h4.97c-.63-1.586-.902-3.753-.951-6.131V564.57c0-5.87-3.226-10.628-10.835-10.628-7.136 0-11.051 4.388-11.524 8.564Zm17.547 9.993c-1.32 3.063-4.067 4.915-7.717 4.915-2.91 0-5.023-1.428-5.023-4.019 0-2.64 2.063-3.644 5.023-3.698l7.717-.109zM981.25 559.65v-5.072h-5.017v26.432h5.072v-13.48c0-4.6 2.803-8.933 5.762-8.933 1.852 0 2.852 1.266 2.852 3.644v1.114h4.339c.049-.32.049-1.06.049-1.956 0-4.762-2.113-7.456-5.811-7.456-2.694 0-5.127 1.9-7.245 5.708ZM999.574 567.688c0 7.984 3.492 13.849 9.678 13.849 3.65 0 6.979-2.222 9.254-6.186v5.659h5.018v-37.005h-5.072v15.966c-2.276-3.807-5.66-6.028-9.309-6.028-6.131 0-9.569 5.816-9.569 13.745m19.084.055c0 5.762-4.649 9.302-7.929 9.302-3.595 0-6.028-3.171-6.028-9.357 0-6.082 2.33-9.254 5.925-9.254 3.22 0 8.032 3.492 8.032 9.309M1380.549 1063.204H1943.2v12.86h-562.651z" class="cls-2"/><path d="M.049 358.5v708.457H0v12.86h416.83v46.444H239.931v45.021h12.86v-32.161H416.83v32.161h12.86v-91.465h.006v-12.86H12.909v-695.58l215.733.214v319.485H83.922v185.857h12.86V703.942h131.86v160.127h-69.34v12.865h82.2V374.7l1024.56 698.996 10.053 6.865V362.804h772.07v713.076l241.592.114 523.536-1045.9v1056.25h-56.96v45.022h12.865v-32.161h164.034v32.16h12.865v-45.02h-119.939V2.878L2813.996 0l-532.163 1063.123-220.78-.104V349.94h-784.937v-.052h-12.86v706.322L241.502 359.13v-.388z" class="cls-2"/><path d="M304.759 863.965H729.24v12.866H304.759zM2826.64 1258.408h119.477v-45.015h-12.865v32.155h-164.034v-32.156h-12.866v45.016h57.425v45.95l163.931.07v241.893h-520.613l-.131-255.589-214.639-.744v140.261h12.866v-127.357l188.918.657.057 113.835h-140.31v12.86h140.316l.057 116.077h-188.215v-67.287h-12.866v67.287h-117.364l-117.892-225.415-50.001 24.46 5.653 11.557 38.754-18.965 110.913 212.083-479.468 254.312-113.814-216.446 374.47-195.212-5.946-11.404-374.51 195.232-153.721-292.34-11.383 5.985 273.543 520.211-303.152 160.793-271.495-514.502h-90.03l-193.56-130.828-7.202 10.655 189.93 128.379-184.89 272.452-262.573-169.506 190.653-282.444H429.689v-32.07h-12.86v32.162H252.792v-32.161h-12.86v45.021H429.69v-.092h236.174l-184.462 273.266 284.166 183.452 193.69-285.426h80.722l273.891 519.042 809.55-429.39h867.154v-267.613l-163.934-.071z" class="cls-2"/></svg>