<?xml version="1.0" encoding="UTF-8"?>
<svg xmlns="http://www.w3.org/2000/svg" width="2990.575" height="1988.5715" viewBox="0 0 2990.575 1988.5715">
  <defs>
    <style>
      .cls-1 {
        fill: none;
      }

      .cls-2 {
        fill: #ed1c24;
      }
    </style>
  </defs>
  <g id="Layer_1" data-name="Layer 1">
    <path class="cls-1" d="M1702.929,752.593c0,2.59,2.115,4.019,5.02,4.019,3.65,0,6.3979-1.85,7.723-4.915v-2.908l-7.722.106c-2.957.051-5.021,1.056-5.021,3.698M1341.296,1668.921h13.321c-.3199-3.65-2.856-5.816-6.343-5.816-3.595,0-6.397,2.379-6.979,5.816M1282.92,1678.328c0,2.59,2.113,4.0179,5.0179,4.0179,3.65,0,6.3979-1.8521,7.723-4.915v-2.91l-7.723.108c-2.96.054-5.0179,1.0601-5.0179,3.699M1552.692,747.043c0-5.92-2.748-9.515-7.2419-9.515s-7.1899,3.595-7.1899,9.515c0,5.868,2.696,9.411,7.1899,9.411s7.2419-3.543,7.2419-9.411M1768.286,737.37c-3.595,0-6.3979,2.38-6.979,5.814h13.322c-.3199-3.647-2.8571-5.813-6.343-5.813M2671.7429,793.723c-3.595,0-5.9221,3.172-5.9221,9.249,0,6.185,2.4331,9.357,6.0281,9.357,3.2781,0,7.9299-3.541,7.9299-9.303,0-5.816-4.813-9.303-8.0359-9.303M1588.5649,1376.865c0,2.59,2.1121,4.0179,5.0179,4.0179,3.65,0,6.397-1.851,7.722-4.9139v-2.911l-7.722.108c-2.96.05-5.0179,1.054-5.0179,3.699M2665.5659,879.274c4.491,0,7.239-3.543,7.239-9.411,0-5.92-2.748-9.515-7.24-9.515-4.4961,0-7.1899,3.595-7.1899,9.515,0,5.868,2.6941,9.411,7.1899,9.411M1632.467,1371.314c0,5.865,2.694,9.412,7.1899,9.412,4.4919,0,7.24-3.546,7.24-9.412,0-5.92-2.748-9.514-7.24-9.514-4.496,0-7.1899,3.595-7.1899,9.514M2634.9199,741.946c0,2.59,2.115,4.019,5.0229,4.019,3.647,0,6.3979-1.85,7.717-4.915v-2.908l-7.717.106c-2.96.051-5.0229,1.056-5.0229,3.698M949.014,1193.521c0,2.59,2.112,4.019,5.018,4.019,3.65,0,6.397-1.8521,7.722-4.915v-2.91l-7.722.108c-2.96.054-5.018,1.059-5.018,3.698M786.014,1120.13l-6.343-19.084-6.5,19.084h12.843ZM844.227,1111.826c-3.596,0-5.92,3.172-5.92,9.254,0,6.186,2.433,9.3571,6.028,9.3571,3.275,0,7.93-3.54,7.93-9.303,0-5.816-4.813-9.308-8.039-9.308M741.465,1551.1219c-3.595,0-6.397,2.379-6.978,5.817h13.321c-.32-3.65-2.856-5.817-6.343-5.817h0ZM772.866,1499.611c0,2.59,2.113,4.019,5.018,4.019,3.65,0,6.398-1.8521,7.723-4.915v-2.91l-7.723.108c-2.96.054-5.018,1.059-5.018,3.698M1025.75,1111.5649c-3.595,0-6.397,2.379-6.978,5.817h13.322c-.3199-3.65-2.8571-5.817-6.343-5.817M1097.866,1111.5649c-3.595,0-6.397,2.379-6.979,5.817h13.322c-.3199-3.65-2.856-5.817-6.343-5.817M1308.673,1606.0439c0-5.92-2.748-9.515-7.24-9.515-4.496,0-7.1899,3.595-7.1899,9.515,0,5.87,2.694,9.411,7.1899,9.411,4.4919,0,7.24-3.54,7.24-9.411M901.76,1111.5649c-3.595,0-6.397,2.379-6.978,5.817h13.321c-.32-3.65-2.856-5.817-6.343-5.817h0ZM1003.202,1108.23c0-3.698-2.536-6.076-7.456-6.076h-10.677v12.425h10.047c5.18,0,8.086-2.3781,8.086-6.348M2587.2729,804.878l-7.717.103c-2.96.054-5.0239,1.059-5.0239,3.698,0,2.59,2.116,4.02,5.0239,4.02,3.647,0,6.397-1.847,7.717-4.916v-2.905ZM887.021,491.7c-3.595,0-5.925,3.172-5.925,9.255,0,6.185,2.433,9.357,6.028,9.357,3.28,0,7.93-3.54,7.93-9.303,0-5.816-4.812-9.308-8.033-9.308M820.76,577.257c4.492,0,7.24-3.54,7.24-9.411,0-5.92-2.749-9.515-7.24-9.515-4.496,0-7.19,3.595-7.19,9.515,0,5.87,2.694,9.411,7.19,9.411M964.785,506.663c0,2.59,2.112,4.018,5.018,4.018,3.65,0,6.397-1.852,7.722-4.915v-2.91l-7.722.108c-2.955.054-5.018,1.06-5.018,3.699M819.446,506.663c0,2.59,2.118,4.018,5.023,4.018,3.645,0,6.398-1.852,7.718-4.915v-2.91l-7.718.108c-2.96.054-5.023,1.06-5.023,3.699M704.867,491.7c-3.595,0-5.925,3.172-5.925,9.255,0,6.185,2.433,9.357,6.028,9.357,3.275,0,7.93-3.54,7.93-9.303,0-5.816-4.812-9.308-8.033-9.308M730.376,506.663c0,2.59,2.112,4.018,5.023,4.018,3.65,0,6.398-1.852,7.717-4.915v-2.91l-7.717.108c-2.96.054-5.023,1.06-5.023,3.699M640.73,480.92l-6.501,19.084h12.844l-6.343-19.084ZM1019.462,506.663c0,2.59,2.118,4.018,5.023,4.018,3.644,0,6.3979-1.852,7.717-4.915v-2.91l-7.717.108c-2.96.054-5.023,1.06-5.023,3.699M2763.5591,1436.261c3.595,0,6.0281-3.172,6.0281-9.363,0-6.077-2.324-9.248-5.9199-9.248-3.2261,0-8.0371,3.4919-8.0371,9.303,0,5.762,4.6541,9.308,7.929,9.308h0ZM2702.4951,726.987c-3.595,0-5.9221,3.171-5.9221,9.251,0,6.186,2.4331,9.357,6.0281,9.357,3.2781,0,7.929-3.543,7.929-9.305,0-5.814-4.812-9.303-8.0349-9.303M2604.2361,738.142l-7.717.105c-2.96.052-5.0239,1.057-5.0239,3.699,0,2.59,2.116,4.019,5.0239,4.019,3.647,0,6.397-1.85,7.717-4.915v-2.908ZM2730.8601,1436.467c4.491,0,7.24-3.54,7.24-9.406,0-5.92-2.749-9.514-7.24-9.514-4.4971,0-7.1899,3.595-7.1899,9.514,0,5.866,2.6931,9.406,7.1899,9.406M1004.7,567.688c0,6.186,2.434,9.357,6.03,9.357,3.28,0,7.928-3.54,7.928-9.302,0-5.817-4.812-9.309-8.032-9.309-3.595,0-5.925,3.172-5.925,9.254M2505.9661,735.285h12.8459l-6.343-19.084-6.5029,19.084ZM1076.572,506.663c0,2.59,2.113,4.018,5.0179,4.018,3.65,0,6.397-1.852,7.723-4.915v-2.91l-7.723.108c-2.954.054-5.0179,1.06-5.0179,3.699M949.92,573.396c0,2.59,2.113,4.019,5.024,4.019,3.65,0,6.398-1.852,7.717-4.915v-2.911l-7.717.109c-2.96.054-5.023,1.059-5.023,3.698M704.509,1484.389c-3.595,0-6.398,2.3781-6.979,5.816h13.322c-.32-3.65-2.857-5.816-6.343-5.816ZM1150.007,506.663c0,2.59,2.113,4.018,5.0179,4.018,3.65,0,6.3979-1.852,7.723-4.915v-2.91l-7.723.108c-2.96.054-5.0179,1.06-5.0179,3.699M2540.354,860.454c-3.5959,0-6.186,3.171-6.186,8.933,0,5.657,2.699,8.828,6.2939,8.828,3.2749,0,7.875-3.54,7.875-8.773,0-5.499-4.7581-8.988-7.9839-8.988M1826.156,1579.1021c0,2.59,2.113,4.0179,5.0179,4.0179,3.65,0,6.3979-1.8459,7.723-4.9139v-2.906l-7.723.103c-2.96.054-5.0179,1.0601-5.0179,3.699M530.94,778.696c4.492,0,7.24-3.54,7.24-9.412,0-5.92-2.748-9.514-7.24-9.514-4.496,0-7.19,3.595-7.19,9.514,0,5.871,2.694,9.412,7.19,9.412M676.111,1566.345c0,2.59,2.113,4.019,5.018,4.019,3.65,0,6.398-1.8521,7.723-4.915v-2.911l-7.723.108c-2.96.0551-5.018,1.0601-5.018,3.699M433.078,692.882c-3.595,0-6.397,2.378-6.984,5.816h13.327c-.32-3.65-2.856-5.816-6.343-5.816ZM478.37,769.127c0,6.186,2.434,9.357,6.029,9.357,3.275,0,7.929-3.54,7.929-9.303,0-5.816-4.812-9.308-8.038-9.308-3.595,0-5.92,3.171-5.92,9.254M733.515,1503.26c3.274,0,7.928-3.54,7.928-9.302,0-5.817-4.811-9.309-8.037-9.309-3.595,0-5.92,3.172-5.92,9.255,0,6.1851,2.433,9.3571,6.029,9.3571M500.219,701.446h12.844l-6.344-19.084-6.5,19.084ZM1778.9301,1582.751c3.595,0,6.028-3.172,6.028-9.3571,0-6.077-2.324-9.249-5.92-9.249-3.225,0-8.037,3.4871-8.037,9.303,0,5.762,4.6541,9.303,7.929,9.303"/>
    <path d="M2331.1331,1350.786l8.9331,29.391h6.7129l9.938-37.005h-5.4961l-7.875,30.396-9.52-30.396h-5.55l-9.2,30.77-8.1899-30.77h-5.5l10.1001,37.005h6.8159l8.8311-29.391ZM2378.9939,1347.403c5.9741,0,9.0911,3.752,10.3621,7.505l5.127-1.901c-2.2219-6.131-8.2439-10.574-15.489-10.574-10.7859,0-17.8669,8.141-17.8669,19.296,0,11.6331,6.978,19.192,17.71,19.192,7.45,0,13.5869-4.7629,15.5969-11.106l-4.9199-1.743c-1.429,4.6541-5.0239,7.88-10.52,7.88-7.875,0-12.2629-6.028-12.2629-14.4351,0-8.564,4.7581-14.115,12.2629-14.115M162.842,768.655l-7.875,30.396-9.514-30.397h-5.55l-9.2,30.766-8.2-30.765h-5.497l10.102,37.005h6.82l8.826-29.391,8.933,29.39h6.713l9.938-37.005-5.496.001ZM190.615,772.885c5.974,0,9.091,3.753,10.362,7.505l5.127-1.9c-2.221-6.137-8.25-10.574-15.489-10.574-10.785,0-17.867,8.14-17.867,19.295,0,11.628,6.973,19.187,17.704,19.187,7.457,0,13.588-4.757,15.597-11.1l-4.92-1.743c-1.423,4.649-5.018,7.874-10.514,7.874-7.88,0-12.268-6.022-12.268-14.43,0-8.564,4.763-14.114,12.268-14.114M2331.1331,1477.8719l8.9331,29.391h6.7129l9.938-37.005h-5.4961l-7.875,30.396-9.52-30.396h-5.55l-9.1941,30.77-8.1951-30.77h-5.502l10.1011,37.005h6.8159l8.8313-29.391ZM2378.9939,1474.483c5.9741,0,9.0911,3.7581,10.3621,7.51l5.127-1.905c-2.2219-6.126-8.2439-10.569-15.489-10.569-10.7859,0-17.8669,8.136-17.8669,19.29,0,11.6331,6.978,19.193,17.71,19.193,7.45,0,13.5869-4.7581,15.5969-11.1l-4.9199-1.744c-1.429,4.6541-5.0239,7.88-10.52,7.88-7.875,0-12.2629-6.028-12.2629-14.4351,0-8.564,4.7581-14.12,12.2629-14.12ZM2529.438,749.56l-12.793-37.005h-8.0339l-13.219,37.005h5.656l3.2261-9.357h16.124l3.1201,9.357h5.9197ZM2505.9661,735.285l6.5029-19.084,6.343,19.084h-12.8459ZM2535.76,723.128v26.432h5.074v-13.482c0-4.597,2.803-8.934,5.762-8.934,1.8501,0,2.854,1.268,2.854,3.65v1.108h4.3369c.051-.315.051-1.057.051-1.955,0-4.758-2.115-7.454-5.813-7.454-2.697,0-5.1299,1.903-7.2451,5.71v-5.075h-5.0198ZM2571.2661,753.418l11.103-30.29h-5.3411l-6.873,20.721-6.9241-20.72h-5.4451l9.833,26.8-.53,1.374c-.8989,2.327-2.01,2.696-4.7571,2.696h-4.97v4.549h5.9199c4.3879,0,6.5581-1.271,7.9829-5.13h.0015ZM2604.448,745.172c.1599,2.06.4231,3.54.5801,4.388h4.97c-.6331-1.586-.8989-3.753-.95-6.131v-10.31c0-5.869-3.2261-10.626-10.8369-10.626-7.137,0-11.05,4.388-11.5249,8.564h5.2329c.2119-1.903,2.01-4.282,6.2371-4.282,3.7561,0,6.0801,2.01,6.0801,6.343v.793l-7.771.106c-6.1831.106-9.99,2.645-9.99,8.14,0,5.024,3.752,8.038,8.8269,8.038,4.4939,0,7.614-2.063,9.146-5.023l-.0002-.0002ZM2596.5181,745.965c-2.907,0-5.0229-1.429-5.0229-4.02,0-2.641,2.064-3.646,5.0239-3.698l7.717-.105v2.908c-1.3201,3.065-4.0701,4.915-7.717,4.915M2639.8889,734.017c-6.1831.106-9.99,2.645-9.99,8.14,0,5.024,3.7529,8.038,8.8279,8.038,4.4939,0,7.614-2.064,9.145-5.023.1599,2.06.4241,3.54.5811,4.388h4.97c-.6331-1.586-.8999-3.753-.95-6.132v-10.31c0-5.868-3.2271-10.625-10.8379-10.625-7.136,0-11.0491,4.388-11.5239,8.564h5.2319c.2119-1.903,2.01-4.282,6.238-4.282,3.7549,0,6.0801,2.01,6.0801,6.343v.793l-7.7722.1059ZM2647.6599,741.05c-1.3201,3.066-4.0701,4.915-7.717,4.915-2.908,0-5.0229-1.429-5.0229-4.02,0-2.641,2.064-3.646,5.0229-3.698l7.717-.105v2.908ZM2661.23,723.128v26.432h5.074v-13.216c0-5.71,3.8589-9.251,7.5601-9.251,3.4351,0,5.127,2.115,5.127,7.4v15.067h5.075v-16.811c0-6.504-3.0659-10.256-8.616-10.256-3.9641,0-7.2419,2.748-9.2,6.025v-5.39h-5.02ZM2715.3931,749.56v-37.005h-5.075v15.963c-2.2729-3.804-5.656-6.025-9.303-6.025-6.134,0-9.5691,5.816-9.5691,13.745,0,7.983,3.49,13.851,9.675,13.851,3.647,0,6.979-2.22,9.251-6.185v5.656h5.021ZM2702.6011,745.595c-3.595,0-6.0281-3.171-6.0281-9.357,0-6.08,2.3269-9.251,5.9221-9.251,3.2229,0,8.0349,3.49,8.0349,9.303,0,5.762-4.6521,9.306-7.929,9.306M2560.9199,816.293v-37.005h-5.3931v15.489h-19.876v-15.489h-5.3931v37.005h5.3931v-16.439h19.876v16.44l5.3931-.001ZM2587.4851,811.905c.1599,2.064.4231,3.541.5801,4.388h4.97c-.6331-1.585-.8989-3.752-.95-6.131v-10.308c0-5.87-3.2261-10.628-10.8379-10.628-7.136,0-11.0491,4.389-11.5239,8.565h5.2329c.2119-1.901,2.01-4.28,6.2371-4.28,3.7561,0,6.0801,2.01,6.0801,6.344v.792l-7.772.104c-6.1831.108-9.99,2.644-9.99,8.14,0,5.024,3.7529,8.038,8.8279,8.038,4.4939,0,7.614-2.064,9.146-5.024h-.0002ZM2579.5552,812.6981c-2.907,0-5.0229-1.428-5.0229-4.019,0-2.639,2.064-3.644,5.0239-3.698l7.717-.103v2.905c-1.3201,3.069-4.0701,4.915-7.717,4.915M2622.5161,816.293v-13.745c0-5.496,3.3831-8.776,6.7671-8.776,3.1169,0,4.915,2.172,4.915,6.24v16.281h5.075v-16.862c0-6.61-2.803-10.205-7.9839-10.205-4.1221,0-7.717,2.488-9.5139,6.029-.9529-3.492-3.49-6.029-7.5081-6.029-3.9099,0-6.6069,2.33-8.459,5.871v-5.235h-5.02v26.431h5.075v-13.745c0-5.496,3.3831-8.776,6.7661-8.776,3.1201,0,4.915,2.33,4.915,6.767v15.754h4.9717ZM2648.0701,789.862h5.075v26.432h-5.075v-26.432ZM2647.489,779.288h6.2891v6.343h-6.2891v-6.343ZM2684.6411,779.288h-5.075v15.967c-2.272-3.807-5.656-6.029-9.303-6.029-6.134,0-9.5691,5.817-9.5691,13.746,0,7.983,3.49,13.854,9.675,13.854,3.647,0,6.9761-2.222,9.252-6.186v5.653h5.02v-37.005ZM2671.8491,812.328c-3.595,0-6.0281-3.17-6.0281-9.356,0-6.077,2.3269-9.249,5.9221-9.249,3.2241,0,8.0349,3.487,8.0349,9.303,0,5.762-4.6509,9.303-7.929,9.303M2463.0249,850.779v-4.758h-27.7029v37.006h28.865v-4.863h-23.4719v-12.478h15.1731v-4.863h-15.1731v-10.043l22.3098-.001ZM2481.1851,879.326c-3.4351,0-6.186-1.374-6.5549-4.228h-5.075c.53,4.915,4.812,8.564,11.5239,8.564,6.4519,0,10.416-3.489,10.416-8.3,0-3.702-2.3779-6.61-7.3479-7.612l-4.5481-.899c-3.011-.584-4.0161-1.586-4.0161-3.226,0-1.955,1.6919-3.489,4.97-3.489,3.4341,0,5.3379,1.746,5.6011,3.913h5.075c-.738-4.706-4.385-8.09-10.4651-8.09-6.0281,0-10.1499,3.384-10.1499,8.036,0,3.65,2.4851,6.291,7.3999,7.402l4.4929,1.004c3.2781.74,4.0701,1.904,4.0701,3.278,0,2.115-1.7971,3.647-5.3921,3.647M2521.7671,883.027v-16.811c0-6.504-3.0659-10.256-8.616-10.256-3.9651,0-7.1899,2.748-9.146,5.974v-15.912h-5.075v37.005h5.075v-13.216c0-5.71,3.8589-9.251,7.5601-9.251,3.4351,0,5.127,2.115,5.127,7.4v15.067h5.075ZM2540.989,888.471c-3.699,0-5.6541-1.692-6.2891-3.858h-5.1809c.6841,4.863,4.915,8.034,11.416,8.034,7.9829,0,12.2681-4.122,12.2681-11.841v-24.21h-5.0239v5.495c-2.2209-3.91-5.55-6.131-9.303-6.131-5.6589,0-9.78,5.656-9.78,13.427,0,7.717,4.176,13.322,9.8831,13.322,3.7529,0,6.876-2.221,9.146-6.08v5.024c0,4.969-3.0139,6.818-7.136,6.818h-.0002ZM2540.4619,878.215c-3.595,0-6.2939-3.171-6.2939-8.828,0-5.762,2.5901-8.933,6.186-8.933,3.2251,0,7.9829,3.49,7.9829,8.988,0,5.233-4.6001,8.773-7.875,8.773ZM2585.0049,883.027v-16.811c0-6.504-3.0681-10.256-8.6179-10.256-3.9651,0-7.1899,2.748-9.146,5.974v-15.912h-5.0769v37.005h5.0769v-13.216c0-5.71,3.8621-9.251,7.5601-9.251,3.438,0,5.127,2.115,5.127,7.4v15.067h5.0769ZM2593.7061,856.595h5.0779v26.432h-5.0779v-26.432ZM2593.124,846.021h6.2939v6.343h-6.2939v-6.343ZM2650.25,850.779v-4.758h-27.7019v37.006h5.3931v-16.811h17.2859v-4.863h-17.2859v-10.574h22.3088ZM2665.5659,883.662c7.3479,0,12.4199-5.659,12.4199-13.8,0-8.192-5.072-13.902-12.4199-13.902-7.3,0-12.3721,5.71-12.3721,13.903,0,8.14,5.073,13.8,12.3721,13.8M2665.5659,860.349c4.491,0,7.239,3.595,7.239,9.515,0,5.868-2.748,9.411-7.24,9.411-4.4961,0-7.1899-3.543-7.1899-9.411,0-5.92,2.6941-9.515,7.1899-9.515M2685.47,856.595v26.432h5.0769v-13.482c0-4.597,2.803-8.934,5.762-8.934,1.8521,0,2.8569,1.271,2.8569,3.65v1.108h4.334c.054-.315.054-1.057.054-1.955,0-4.758-2.1179-7.454-5.8159-7.454-2.7,0-5.127,1.903-7.2451,5.71v-5.075h-5.0227ZM2718.2881,883.662c3.9641,0,7.239-2.75,9.1941-6.028v5.393h5.0239v-26.432h-5.073v13.216c0,5.708-3.8611,9.251-7.5601,9.251-3.437,0-5.126-2.115-5.126-7.402v-15.065h-5.0779v16.811c0,6.5,3.0681,10.256,8.6189,10.256h0ZM2758.2261,867.272v15.755h4.969v-13.7469c0-5.498,3.3831-8.776,6.7671-8.776,3.123,0,4.9199,2.17,4.9199,6.24v16.282h5.073v-16.866c0-6.606-2.803-10.201-7.9839-10.201-4.1221,0-7.717,2.484-9.5139,6.025-.95-3.486-3.4871-6.025-7.5061-6.025-3.915,0-6.6101,2.327-8.4609,5.868v-5.233h-5.0229v26.432h5.0769v-13.746c0-5.498,3.384-8.776,6.7671-8.776,3.1169,0,4.915,2.327,4.915,6.767l-.0002.0009ZM1518.464,760.207h6.186v-37.005h-5.13v28.81l-17.655-28.81h-8.5129v37.005h5.13v-32.567l19.9819,32.567ZM1557.873,747.043c0-8.193-5.075-13.903-12.423-13.903-7.297,0-12.3719,5.71-12.3719,13.903,0,8.14,5.076,13.8,12.3719,13.8,7.348,0,12.423-5.66,12.423-13.8M1538.259,747.043c0-5.92,2.697-9.515,7.1899-9.515s7.243,3.595,7.243,9.515c0,5.868-2.748,9.411-7.2419,9.411s-7.1899-3.543-7.1899-9.411M1565.307,733.775v26.432h5.075v-13.482c0-4.597,2.803-8.934,5.7629-8.934,1.849,0,2.853,1.269,2.853,3.65v1.108h4.337c.052-.315.052-1.056.052-1.955,0-4.758-2.116-7.454-5.814-7.454-2.697,0-5.13,1.903-7.245,5.71v-5.075h-5.021ZM1593.151,727.641v6.134h-5.1801v4.228h5.1801v16.018c0,4.283,2.485,6.186,7.2939,6.186h5.235v-4.388h-4.0699c-2.751,0-3.384-.95-3.384-2.908v-14.908h5.974v-4.228h-5.974v-9.517l-5.075,3.3831ZM1611.798,723.202v37.005h5.075v-13.217c0-5.71,3.858-9.251,7.5601-9.251,3.4351,0,5.126,2.115,5.126,7.4v15.067h5.075v-16.811c0-6.503-3.0649-10.256-8.616-10.256-3.964,0-7.1899,2.748-9.145,5.974v-15.912l-5.075.0009ZM1674.358,727.43c5.868,0,8.827,2.802,11.47,6.715l4.493-3.066c-3.171-5.447-9.3571-8.619-15.806-8.619-11.524,0-18.8199,8.565-18.8199,19.613,0,10.943,7.139,18.875,17.077,18.875,5.6021,0,10.465-2.59,13.11-7.771l.2111,7.03h4.283v-19.084h-13.851v4.863h9.093c-1.1639,6.979-5.764,10.096-11.578,10.096-7.983,0-12.74-5.762-12.74-14.378s4.757-14.275,13.058-14.275M1707.9,744.664c-6.1851.106-9.9919,2.645-9.9919,8.14,0,5.024,3.7531,8.038,8.83,8.038,4.4919,0,7.61-2.063,9.146-5.023.158,2.06.418,3.54.5811,4.388h4.97c-.636-1.586-.902-3.753-.95-6.131v-10.31c0-5.869-3.2271-10.626-10.84-10.626-7.137,0-11.05,4.388-11.525,8.564h5.233c.212-1.903,2.01-4.282,6.2371-4.282,3.7531,0,6.083,2.01,6.083,6.343v.793l-7.772.106-.0012-.0002ZM1715.672,751.697c-1.325,3.066-4.073,4.915-7.722,4.915-2.906,0-5.021-1.428-5.021-4.019,0-2.642,2.064-3.647,5.02-3.698l7.723-.106v2.908ZM1729.184,723.202h5.078v37.005h-5.078v-37.005ZM1743.234,723.202h5.078v37.005h-5.078v-37.005ZM1780.076,746.092c0-7.877-4.7629-12.952-11.79-12.952-7.457,0-12.5291,5.656-12.5291,13.903s5.072,13.8,12.79,13.8c6.348,0,10.313-3.756,11.317-8.565h-5.0229c-.847,2.59-3.014,4.176-6.24,4.176-4.546,0-7.614-3.277-7.826-9.04h19.2469c.054-.74.054-1.164.054-1.322M1761.3069,743.184c.5811-3.435,3.384-5.814,6.979-5.814,3.486,0,6.022,2.167,6.343,5.814h-13.322ZM1787.5601,733.775v26.432h5.077v-13.482c0-4.597,2.803-8.934,5.7629-8.934,1.851,0,2.856,1.269,2.856,3.65v1.108h4.334c.054-.315.054-1.056.054-1.955,0-4.758-2.118-7.454-5.816-7.454-2.7,0-5.127,1.903-7.245,5.71v-5.075h-5.0228ZM1814.1379,764.647h-4.975v4.548h5.925c4.3879,0,6.5551-1.27,7.984-5.13l11.1-30.29h-5.338l-6.876,20.722-6.924-20.722h-5.447l9.835,26.801-.527,1.374c-.901,2.327-2.01,2.697-4.757,2.697M1283.061,1608.265c0-5.762-3.91-8.5649-10.834-9.884l-7.087-1.374c-5.0179-.9561-7.772-2.433-7.772-5.344,0-3.063,2.542-5.23,8.516-5.23,5.441,0,9.775,1.955,14.006,4.3879l2.118-4.55c-4.1281-2.325-9.146-4.807-15.755-4.807-9.145,0-14.49,4.176-14.49,10.78,0,5.605,4.074,8.358,12.0031,9.944l7.348,1.4771c4.3879.902,6.2939,2.325,6.2939,5.078,0,4.3879-4.442,6.234-9.678,6.234-6.5,0-11.415-3.014-15.38-6.446l-3.226,4.28c3.384,3.1169,9.7271,7.136,18.557,7.136,9.1949,0,15.38-4.1219,15.38-11.682h-.0001ZM1313.854,1606.0439c0-8.1949-5.072-13.903-12.42-13.903-7.3,0-12.3719,5.708-12.3719,13.903,0,8.14,5.073,13.8,12.3719,13.8,7.348,0,12.42-5.66,12.42-13.8M1294.244,1606.0439c0-5.92,2.693-9.515,7.1899-9.515,4.491,0,7.239,3.595,7.239,9.515,0,5.87-2.748,9.411-7.24,9.411-4.496,0-7.1899-3.54-7.1899-9.411M1338.792,1613.8149v5.3929h5.0179v-26.432h-5.072v13.214c0,5.713-3.8621,9.254-7.5601,9.254-3.438,0-5.127-2.113-5.127-7.403v-15.0649h-5.078v16.809c0,6.506,3.069,10.259,8.62,10.259,3.964,0,7.238-2.748,9.199-6.0291h.0001ZM1355.106,1586.645v6.131h-5.1801v4.231h5.1801v16.015c0,4.285,2.4821,6.186,7.2939,6.186h5.235v-4.3879h-4.073c-2.748,0-3.384-.95-3.384-2.905v-14.908h5.974v-4.23h-5.974v-9.515l-5.0719,3.3829ZM1373.75,1582.203v37.005h5.078v-13.218c0-5.708,3.861-9.25,7.5601-9.25,3.437,0,5.126,2.114,5.126,7.403v15.0649h5.078v-16.814c0-6.5-3.068-10.2531-8.619-10.2531-3.964,0-7.1899,2.748-9.145,5.974v-15.912h-5.078ZM1254.343,1653.167c5.871,0,8.83,2.802,11.476,6.712l4.49-3.068c-3.17-5.442-9.356-8.613-15.803-8.613-11.53,0-18.823,8.564-18.823,19.61,0,10.943,7.136,18.8719,17.075,18.8719,5.604,0,10.47-2.59,13.11-7.771l.2111,7.033h4.285v-19.084h-13.854v4.86h9.097c-1.162,6.979-5.762,10.1021-11.578,10.1021-7.984,0-12.741-5.762-12.741-14.381s4.757-14.272,13.0551-14.272h-.0001ZM1287.89,1670.399c-6.186.108-9.993,2.644-9.993,8.14,0,5.024,3.752,8.038,8.83,8.038,4.491,0,7.609-2.064,9.146-5.024.157,2.064.418,3.541.58,4.3879h4.97c-.635-1.585-.902-3.752-.95-6.13v-10.309c0-5.87-3.226-10.6281-10.84-10.6281-7.136,0-11.052,4.389-11.524,8.5649h5.235c.2061-1.9,2.004-4.285,6.234-4.285,3.7531,0,6.083,2.01,6.083,6.349v.792l-7.7709.1042ZM1295.66,1677.431c-1.324,3.063-4.072,4.915-7.722,4.915-2.905,0-5.0179-1.428-5.0179-4.019,0-2.639,2.058-3.644,5.0179-3.698l7.723-.109-.001,2.911ZM1309.167,1648.936h5.078v37.005h-5.078v-37.005ZM1323.222,1648.936h5.078v37.005h-5.078v-37.005ZM1335.745,1672.777c0,8.25,5.073,13.8,12.79,13.8,6.349,0,10.313-3.7531,11.318-8.5649h-5.024c-.847,2.59-3.014,4.177-6.24,4.177-4.545,0-7.614-3.28-7.826-9.043h19.2469c.054-.738.054-1.162.054-1.3199,0-7.874-4.762-12.952-11.79-12.952-7.4561,0-12.5291,5.66-12.5291,13.903M1354.6167,1668.9211h-13.321c.58-3.437,3.3831-5.816,6.978-5.816,3.4871,0,6.0229,2.167,6.343,5.816M1367.548,1659.51v26.431h5.078v-13.479c0-4.6,2.802-8.933,5.762-8.933,1.8521,0,2.8571,1.265,2.8571,3.644v1.113h4.333c.0551-.3199.0551-1.059.0551-1.955,0-4.7629-2.118-7.457-5.817-7.457-2.699,0-5.126,1.901-7.244,5.708v-5.072h-5.024ZM1394.126,1690.384h-4.974v4.546h5.925c4.3879,0,6.5551-1.271,7.983-5.127l11.1-30.293h-5.338l-6.875,20.724-6.925-20.724h-5.447l9.835,26.8-.526,1.375c-.902,2.33-2.01,2.699-4.7581,2.699M762.597,1134.402h5.658l3.226-9.358h16.124l3.118,9.358h5.92l-12.796-37.006h-8.032l-13.218,37.006ZM786.014,1120.13h-12.844l6.5-19.084,6.344,19.084ZM825.8,1134.402v-16.814c0-6.5-3.068-10.2531-8.619-10.2531-3.964,0-7.245,2.748-9.2,6.028v-5.3929h-5.023v26.432h5.078v-13.219c0-5.708,3.861-9.248,7.56-9.248,3.437,0,5.126,2.1121,5.126,7.402v15.0649h5.0781ZM857.13,1134.402v-37.006h-5.078v15.967c-2.27-3.807-5.653-6.028-9.303-6.028-6.13,0-9.569,5.816-9.569,13.745,0,7.983,3.487,13.848,9.673,13.848,3.65,0,6.978-2.22,9.254-6.1851v5.6591h5.0229ZM844.335,1130.437c-3.595,0-6.028-3.171-6.028-9.3571,0-6.082,2.324-9.254,5.92-9.254,3.225,0,8.037,3.4919,8.037,9.308,0,5.762-4.654,9.303-7.929,9.303M884.121,1116.746c.055-.3199.055-1.059.055-1.955,0-4.7629-2.118-7.4561-5.817-7.4561-2.699,0-5.127,1.9-7.245,5.707v-5.072h-5.023v26.432h5.078v-13.48c0-4.6,2.802-8.933,5.762-8.933,1.852,0,2.856,1.265,2.856,3.644v1.113h4.334ZM913.55,1120.287c0-7.88-4.762-12.952-11.79-12.952-7.456,0-12.528,5.6591-12.528,13.903,0,8.249,5.072,13.8,12.79,13.8,6.348,0,10.312-3.754,11.317-8.5649h-5.024c-.847,2.59-3.014,4.176-6.24,4.176-4.545,0-7.614-3.28-7.825-9.042h19.246c.055-.739.055-1.162.055-1.3199M894.783,1117.3821c.58-3.438,3.383-5.817,6.978-5.817,3.487,0,6.023,2.167,6.344,5.817h-13.322ZM944.56,1134.402h5.925l8.722-26.432h-5.338l-6.24,21.196-6.398-21.196h-5.653l-6.452,21.196-6.186-21.196h-5.447l8.516,26.432h5.92l6.397-20.3,6.2341,20.3ZM1008.752,1108.23c0-6.391-4.388-10.834-11.893-10.834h-17.183v37.006h5.393v-14.853h11.209c7.614,0,12.474-4.6,12.474-11.318M985.069,1114.5809v-12.426h10.676c4.92,0,7.457,2.3781,7.457,6.077,0,3.97-2.905,6.348-8.086,6.348l-10.047.001ZM1037.54,1120.287c0-7.88-4.762-12.952-11.79-12.952-7.456,0-12.528,5.6591-12.528,13.903,0,8.249,5.072,13.8,12.79,13.8,6.348,0,10.313-3.754,11.317-8.5649h-5.0229c-.847,2.59-3.014,4.176-6.24,4.176-4.546,0-7.614-3.28-7.826-9.042h19.247c.054-.739.054-1.162.054-1.3199M1018.773,1117.3821c.581-3.438,3.383-5.817,6.9789-5.817,3.486,0,6.022,2.167,6.343,5.817h-13.322ZM1054.382,1134.402h5.235v-4.3879h-4.073c-2.748,0-3.384-.95-3.384-2.906v-14.907h5.974v-4.231h-5.974v-9.515l-5.072,3.384v6.131h-5.1801v4.23h5.1801v16.016c0,4.285,2.4821,6.186,7.2939,6.186M1075.8879,1134.402h5.235v-4.3879h-4.073c-2.748,0-3.3831-.95-3.3831-2.906v-14.907h5.973v-4.231h-5.974v-9.515l-5.072,3.384v6.131h-5.1801v4.23h5.1801v16.016c0,4.285,2.4821,6.186,7.2939,6.186M1109.656,1120.287c0-7.88-4.762-12.952-11.79-12.952-7.4561,0-12.5291,5.6591-12.5291,13.903,0,8.249,5.073,13.8,12.79,13.8,6.348,0,10.313-3.754,11.318-8.5649h-5.024c-.847,2.59-3.014,4.176-6.24,4.176-4.545,0-7.614-3.28-7.826-9.042h19.2469c.054-.739.054-1.162.054-1.3199M1090.8878,1117.3821c.58-3.438,3.3831-5.817,6.978-5.817,3.4871,0,6.0229,2.167,6.343,5.817h-13.321ZM1135.165,1116.746c.054-.3199.054-1.059.054-1.955,0-4.7629-2.118-7.4561-5.816-7.4561-2.7,0-5.127,1.9-7.245,5.707v-5.072h-5.024v26.432h5.078v-13.48c0-4.6,2.803-8.933,5.762-8.933,1.8521,0,2.8571,1.265,2.8571,3.644v1.113h4.3341ZM935.399,1201.135v-37.005h-5.393v15.488h-19.877v-15.488h-5.393v37.005h5.393v-16.439h19.877v16.4399l5.393-.001ZM953.983,1185.592c-6.186.109-9.993,2.645-9.993,8.141,0,5.024,3.753,8.038,8.83,8.038,4.492,0,7.61-2.064,9.146-5.024.158,2.064.418,3.541.581,4.3879h4.97c-.636-1.5861-.902-3.7531-.951-6.131v-10.308c0-5.87-3.226-10.6281-10.84-10.6281-7.136,0-11.051,4.3879-11.524,8.5649h5.235c.207-1.901,2.004-4.285,6.235-4.285,3.753,0,6.082,2.01,6.082,6.348v.793l-7.7709.1033ZM961.754,1192.625c-1.325,3.063-4.073,4.915-7.722,4.915-2.906,0-5.018-1.428-5.018-4.019,0-2.64,2.058-3.644,5.018-3.698l7.722-.109v2.911ZM975.261,1164.13h5.078v37.005h-5.078v-37.005ZM989.316,1164.13h5.078v37.005h-5.078v-37.005ZM355.722,683.682h14.169v32.036h5.393v-32.036h14.163v-4.97h-33.725v4.97ZM390.273,689.286v16.809c0,6.506,3.068,10.258,8.618,10.258,3.97,0,7.245-2.748,9.2-6.028v5.393h5.024v-26.432h-5.073v13.214c0,5.713-3.866,9.254-7.565,9.254-3.438,0-5.127-2.113-5.127-7.403v-15.065h-5.077ZM433.078,688.65c-7.462,0-12.534,5.66-12.534,13.904,0,8.25,5.072,13.8,12.795,13.8,6.343,0,10.307-3.753,11.312-8.565h-5.023c-.848,2.59-3.01,4.176-6.235,4.176-4.551,0-7.614-3.28-7.826-9.042h19.241c.055-.739.055-1.162.055-1.32,0-7.874-4.758-12.952-11.785-12.952v-.001ZM426.094,698.698c.587-3.438,3.389-5.817,6.984-5.817,3.487,0,6.023,2.167,6.343,5.817h-13.327ZM453.194,720.16h-4.964v4.546h5.92c4.388,0,6.555-1.27,7.983-5.127l11.1-30.293h-5.344l-6.87,20.724-6.924-20.724h-5.441l9.83,26.801-.533,1.374c-.896,2.33-2.01,2.7-4.757,2.7M502.864,678.713l-13.219,37.005h5.66l3.225-9.357h16.119l3.122,9.357h5.92l-12.79-37.005h-8.037ZM500.219,701.446l6.5-19.084,6.344,19.084h-12.844ZM530.012,689.286v26.432h5.078v-13.48c0-4.6,2.802-8.933,5.757-8.933,1.852,0,2.856,1.266,2.856,3.644v1.114h4.334c.054-.32.054-1.06.054-1.956,0-4.762-2.118-7.456-5.81-7.456-2.7,0-5.133,1.9-7.245,5.708v-5.073h-5.024ZM557.856,683.155v6.131h-5.181v4.23h5.18v16.016c0,4.285,2.488,6.186,7.294,6.186h5.236v-4.388h-4.068c-2.753,0-3.389-.95-3.389-2.906v-14.907h5.974v-4.23h-5.974v-9.515l-5.072,3.3831ZM384.538,755.485c0,5.604,4.073,8.352,12.002,9.944l7.353,1.477c4.383.901,6.289,2.324,6.289,5.078,0,4.388-4.443,6.234-9.678,6.234-6.5,0-11.415-3.014-15.38-6.446l-3.226,4.28c3.384,3.117,9.727,7.135,18.552,7.135,9.2,0,15.385-4.122,15.385-11.681,0-5.762-3.91-8.565-10.834-9.884l-7.082-1.374c-5.029-.956-7.777-2.433-7.777-5.344,0-3.063,2.542-5.23,8.516-5.23,5.441,0,9.775,1.955,14.006,4.388l2.112-4.55c-4.116-2.325-9.145-4.807-15.749-4.807-9.145,0-14.49,4.176-14.49,10.78h.001ZM419.355,760.248h5.18v16.015c0,4.285,2.482,6.186,7.294,6.186h5.235v-4.388h-4.073c-2.748,0-3.378-.95-3.378-2.906v-14.907h5.974v-4.231h-5.974v-9.515l-5.078,3.384v6.131h-5.18v4.2311ZM442.756,756.017v16.808c0,6.507,3.068,10.26,8.618,10.26,3.97,0,7.245-2.749,9.2-6.029v5.393h5.024v-26.432h-5.073v13.213c0,5.714-3.866,9.254-7.565,9.254-3.437,0-5.126-2.112-5.126-7.402v-15.065h-5.078ZM473.244,769.127c0,7.983,3.487,13.849,9.672,13.849,3.644,0,6.979-2.216,9.249-6.186v5.659h5.023v-37.006h-5.077v15.967c-2.27-3.807-5.654-6.028-9.298-6.028-6.137,0-9.569,5.816-9.569,13.745M492.328,769.181c0,5.762-4.654,9.303-7.929,9.303-3.595,0-6.028-3.171-6.028-9.357,0-6.082,2.324-9.254,5.92-9.254,3.225,0,8.037,3.492,8.037,9.308M505.623,745.443h6.289v6.343h-6.289v-6.343ZM506.209,756.017h5.072v26.432h-5.072v-26.432ZM518.57,769.285c0,8.14,5.072,13.8,12.37,13.8,7.343,0,12.421-5.66,12.421-13.8,0-8.196-5.078-13.903-12.42-13.903-7.3,0-12.372,5.708-12.372,13.903M530.939,759.77c4.492,0,7.24,3.595,7.24,9.514,0,5.871-2.748,9.412-7.24,9.412-4.496,0-7.19-3.54-7.19-9.412,0-5.92,2.694-9.514,7.19-9.514M678.267,1474.239v32.986h5.29v-37.005h-9.043l-10.095,29.288-10.205-29.288h-8.776v37.005h5.127v-32.829l11.317,32.83h4.915l11.47-32.9869ZM716.299,1493.11c0-7.88-4.763-12.952-11.79-12.952-7.457,0-12.529,5.6591-12.529,13.903,0,8.25,5.072,13.8,12.79,13.8,6.348,0,10.313-3.7531,11.317-8.5649h-5.023c-.847,2.59-3.014,4.176-6.24,4.176-4.546,0-7.614-3.28-7.826-9.042h19.247c.054-.738.054-1.162.054-1.3199M697.5301,1490.2051c.581-3.438,3.384-5.816,6.979-5.816,3.486,0,6.023,2.167,6.343,5.816h-13.322ZM732.032,1507.752c3.65,0,6.979-2.2209,9.254-6.186v5.66h5.024v-37.006h-5.078v15.9659c-2.27-3.807-5.654-6.028-9.303-6.028-6.131,0-9.57,5.816-9.57,13.745,0,7.984,3.488,13.849,9.673,13.849M733.406,1484.6489c3.226,0,8.038,3.4919,8.038,9.309,0,5.762-4.655,9.303-7.93,9.303-3.595,0-6.028-3.172-6.028-9.358,0-6.082,2.325-9.254,5.92-9.254M755.325,1480.793h5.078v26.432h-5.078v-26.432ZM754.744,1470.22h6.294v6.343h-6.294v-6.343ZM777.835,1491.682c-6.186.109-9.992,2.645-9.992,8.14,0,5.024,3.752,8.0389,8.83,8.0389,4.491,0,7.609-2.064,9.145-5.024.158,2.064.419,3.54.582,4.3879h4.969c-.636-1.5861-.902-3.7531-.956-6.131v-10.308c0-5.87-3.22-10.6281-10.834-10.6281-7.136,0-11.052,4.3879-11.524,8.564h5.235c.212-1.9,2.004-4.2841,6.234-4.2841,3.753,0,6.083,2.009,6.083,6.348v.793l-7.772.1033ZM785.607,1498.715c-1.325,3.063-4.073,4.915-7.723,4.915-2.905,0-5.018-1.428-5.018-4.019,0-2.64,2.058-3.644,5.018-3.698l7.723-.109v2.911ZM647.534,1541.184c5.871,0,8.83,2.802,11.476,6.712l4.491-3.068c-3.172-5.442-9.357-8.613-15.804-8.613-11.53,0-18.823,8.564-18.823,19.61,0,10.943,7.136,18.8719,17.075,18.8719,5.604,0,10.47-2.59,13.11-7.771l.211,7.033h4.285v-19.084h-13.854v4.86h9.097c-1.162,6.98-5.762,10.1021-11.578,10.1021-7.984,0-12.741-5.762-12.741-14.38s4.757-14.2729,13.056-14.2729h-.0009ZM681.08,1558.416c-6.185.108-9.992,2.645-9.992,8.14,0,5.024,3.753,8.038,8.83,8.038,4.492,0,7.609-2.064,9.146-5.0229.157,2.063.418,3.54.58,4.3879h4.97c-.635-1.5861-.901-3.7531-.956-6.132v-10.307c0-5.871-3.22-10.6281-10.834-10.6281-7.136,0-11.052,4.3879-11.524,8.564h5.235c.212-1.9,2.004-4.285,6.235-4.285,3.752,0,6.082,2.01,6.082,6.349v.793l-7.772.1031ZM688.852,1565.449c-1.325,3.063-4.073,4.9139-7.723,4.9139-2.905,0-5.018-1.428-5.018-4.0179,0-2.64,2.059-3.644,5.018-3.699l7.723-.108v2.911ZM702.358,1536.953h5.078v37.005h-5.078v-37.005ZM716.413,1536.953h5.078v37.005h-5.078v-37.005ZM753.256,1559.844c0-7.88-4.763-12.952-11.79-12.952-7.457,0-12.53,5.6591-12.53,13.902,0,8.25,5.073,13.8,12.79,13.8,6.349,0,10.313-3.7531,11.318-8.564h-5.024c-.847,2.59-3.014,4.176-6.24,4.176-4.545,0-7.614-3.28-7.826-9.042h19.247c.054-.739.054-1.163.054-1.3199M734.485,1556.9391c.582-3.438,3.384-5.817,6.98-5.817,3.486,0,6.022,2.167,6.343,5.817h-13.323ZM760.74,1547.527v26.432h5.077v-13.48c0-4.6,2.802-8.933,5.762-8.933,1.852,0,2.857,1.265,2.857,3.644v1.113h4.333c.055-.3199.055-1.059.055-1.955,0-4.7629-2.118-7.4561-5.817-7.4561-2.699,0-5.126,1.9-7.244,5.707v-5.072h-5.023ZM787.317,1578.401h-4.974v4.546h5.925c4.388,0,6.555-1.271,7.983-5.127l11.1-30.293h-5.338l-6.875,20.724-6.925-20.724h-5.447l9.836,26.8-.527,1.375c-.902,2.33-2.01,2.699-4.758,2.699M2665.5601,1435.99c-6.5,0-11.415-3.01-15.3799-6.447l-3.2261,4.285c3.384,3.1169,9.7271,7.136,18.5569,7.136,9.1951,0,15.3799-4.127,15.3799-11.687,0-5.757-3.9099-8.559-10.834-9.884l-7.0869-1.374c-5.0181-.95-7.772-2.428-7.772-5.338,0-3.063,2.542-5.236,8.5161-5.236,5.4409,0,9.7749,1.955,14.0061,4.3879l2.1179-4.545c-4.1279-2.33-9.146-4.812-15.7549-4.812-9.145,0-14.49,4.176-14.49,10.786,0,5.604,4.074,8.3521,12.0029,9.938l7.3479,1.4821c4.3879.897,6.2939,2.325,6.2939,5.073,0,4.3879-4.4419,6.234-9.678,6.234v.0011ZM2711.374,1440.226v-16.814c0-6.506-3.0681-10.2531-8.6179-10.2531-3.9651,0-7.1899,2.7469-9.146,5.973v-15.912h-5.0769v37.006h5.0769v-13.219c0-5.713,3.8621-9.254,7.5601-9.254,3.438,0,5.127,2.118,5.127,7.402v15.0699l5.0769.0011ZM2730.8601,1440.856c7.3479,0,12.4199-5.66,12.4199-13.795,0-8.1949-5.072-13.903-12.4199-13.903-7.2991,0-12.3711,5.708-12.3711,13.903,0,8.136,5.072,13.7939,12.3711,13.7939M2730.8601,1417.5448c4.491,0,7.24,3.5959,7.24,9.515,0,5.865-2.749,9.406-7.24,9.406-4.4971,0-7.1899-3.54-7.1899-9.406,0-5.92,2.6931-9.514,7.1899-9.514M2750.7639,1413.7889v35.42h5.0779v-14.5341c2.2749,3.856,5.604,6.077,9.2,6.077,6.1851,0,9.6721-5.87,9.6721-13.854,0-7.928-3.438-13.74-9.5701-13.74-3.6489,0-7.0811,2.2159-9.356,6.078v-5.448l-5.0239.001ZM2763.667,1417.6489c3.5959,0,5.9199,3.172,5.9199,9.25,0,6.1899-2.4331,9.3621-6.0281,9.3621-3.2749,0-7.929-3.546-7.929-9.308,0-5.811,4.812-9.303,8.0381-9.303l-.001-.0011ZM1720.701,1549.71v37.006h25.1119v-4.97h-19.719v-32.036h-5.3929ZM1751.4449,1549.71h6.2939v6.343h-6.2939v-6.343ZM1752.026,1560.2841h5.078v26.432h-5.078v-26.432ZM1766.135,1549.71v37.006h5.024v-5.6541c2.275,3.965,5.604,6.186,9.254,6.186,6.186,0,9.672-5.87,9.672-13.854,0-7.929-3.438-13.745-9.569-13.745-3.644,0-7.033,2.22-9.303,6.028v-15.967h-5.0781ZM1779.0391,1564.145c3.595,0,5.92,3.172,5.92,9.249,0,6.1851-2.434,9.3571-6.0291,9.3571-3.275,0-7.929-3.54-7.929-9.303,0-5.816,4.812-9.303,8.038-9.303M1815.8101,1569.0601c.0551-.3149.0551-1.059.0551-1.955,0-4.757-2.118-7.4561-5.816-7.4561-2.7,0-5.127,1.906-7.245,5.713v-5.078h-5.024v26.431h5.078v-13.479c0-4.6,2.802-8.933,5.762-8.933,1.8521,0,2.8571,1.265,2.8571,3.65v1.1071h4.333ZM1831.125,1571.173c-6.1851.108-9.9919,2.645-9.9919,8.14,0,5.024,3.752,8.038,8.83,8.038,4.4919,0,7.609-2.064,9.146-5.0229.157,2.063.418,3.54.58,4.3879h4.97c-.635-1.5861-.901-3.7531-.9561-6.132v-10.307c0-5.871-3.22-10.6281-10.834-10.6281-7.136,0-11.052,4.3879-11.524,8.564h5.235c.212-1.9,2.004-4.28,6.235-4.28,3.752,0,6.082,2.01,6.082,6.344v.793l-7.7719.1031ZM1838.897,1578.2059c-1.325,3.068-4.073,4.9139-7.723,4.9139-2.905,0-5.0179-1.428-5.0179-4.0179,0-2.64,2.059-3.645,5.0179-3.699l7.723-.103v2.906ZM1870.488,1569.0601c.054-.3149.054-1.059.054-1.955,0-4.757-2.118-7.4561-5.816-7.4561-2.7,0-5.127,1.906-7.245,5.713v-5.078h-5.024v26.431h5.078v-13.479c0-4.6,2.802-8.933,5.762-8.933,1.8521,0,2.8571,1.265,2.8571,3.65v1.1071h4.3341ZM1879.036,1591.158h-4.975v4.546h5.925c4.3879,0,6.5551-1.271,7.983-5.127l11.101-30.293h-5.338l-6.876,20.724-6.924-20.724h-5.447l9.835,26.8-.527,1.375c-.901,2.33-2.01,2.699-4.757,2.699M1562.21,1380.248c-6.502,0-11.416-3.014-15.38-6.452l-3.2271,4.285c3.384,3.1169,9.7271,7.136,18.557,7.136,9.1949,0,15.38-4.1219,15.38-11.682,0-5.762-3.91-8.564-10.834-9.889l-7.087-1.374c-5.0179-.95-7.772-2.428-7.772-5.338,0-3.063,2.542-5.236,8.516-5.236,5.441,0,9.775,1.96,14.006,4.3879l2.118-4.545c-4.1281-2.325-9.146-4.812-15.755-4.812-9.145,0-14.49,4.176-14.49,10.786,0,5.604,4.074,8.3521,12.0031,9.938l7.348,1.4821c4.3879.897,6.2939,2.325,6.2939,5.073,0,4.3879-4.442,6.24-9.678,6.24M1593.5341,1368.936c-6.186.103-9.993,2.644-9.993,8.14,0,5.024,3.7531,8.038,8.83,8.038,4.4919,0,7.61-2.064,9.146-5.024.1083,1.473.3022,2.9386.5811,4.389h4.97c-.636-1.5861-.902-3.7531-.95-6.132v-10.313c0-5.865-3.2271-10.623-10.84-10.623-7.137,0-11.052,4.3879-11.525,8.5649h5.236c.2061-1.906,2.004-4.285,6.234-4.285,3.7531,0,6.083,2.01,6.083,6.343v.793l-7.772.1091ZM1601.3051,1375.969c-1.325,3.062-4.073,4.9139-7.722,4.9139-2.906,0-5.0179-1.428-5.0179-4.0179,0-2.645,2.058-3.65,5.0179-3.699l7.722-.108v2.911ZM1614.817,1347.473h5.078v37.005h-5.078v-37.005ZM1627.286,1371.314c0,8.141,5.073,13.8,12.3719,13.8,7.348,0,12.42-5.6591,12.42-13.8,0-8.1949-5.073-13.903-12.42-13.903-7.3,0-12.3719,5.708-12.3719,13.903M1646.896,1371.314c0,5.865-2.7469,9.412-7.238,9.412-4.4969,0-7.1899-3.546-7.1899-9.412,0-5.92,2.693-9.514,7.1899-9.514,4.49,0,7.239,3.595,7.239,9.514M1682.354,1384.479v-16.814c0-6.5-3.068-10.2531-8.618-10.2531-3.965,0-7.245,2.7469-9.2,6.022v-5.387h-5.024v26.431h5.078v-13.218c0-5.708,3.861-9.249,7.5601-9.249,3.438,0,5.127,2.113,5.127,7.397v15.0699l5.077.0011ZM648.659,504.92l3.122,9.356h5.92l-12.79-37.005h-8.037l-13.219,37.005h5.66l3.225-9.357,16.119.001ZM640.729,480.92l6.344,19.084h-12.844l6.5-19.084ZM663.333,487.845v16.808c0,6.506,3.063,10.259,8.613,10.259,3.97,0,7.244-2.748,9.2-6.028v5.392h5.028v-26.431h-5.077v13.213c0,5.713-3.862,9.254-7.56,9.254-3.438,0-5.132-2.113-5.132-7.402v-15.065h-5.072ZM717.76,514.277v-37.007h-5.072v15.967c-2.27-3.807-5.66-6.029-9.303-6.029-6.132,0-9.57,5.817-9.57,13.746,0,7.983,3.493,13.848,9.673,13.848,3.65,0,6.978-2.221,9.254-6.186v5.66l5.018.001ZM704.97,510.312c-3.595,0-6.028-3.172-6.028-9.357,0-6.083,2.33-9.254,5.925-9.254,3.22,0,8.032,3.492,8.032,9.308,0,5.762-4.654,9.303-7.929,9.303M735.345,498.734c-6.18.108-9.993,2.644-9.993,8.14,0,5.024,3.758,8.038,8.83,8.038,4.497,0,7.615-2.064,9.146-5.024.163,2.064.424,3.541.581,4.389h4.97c-.63-1.586-.902-3.753-.951-6.132v-10.307c0-5.871-3.226-10.628-10.834-10.628-7.137,0-11.052,4.388-11.525,8.564h5.23c.212-1.9,2.01-4.285,6.24-4.285,3.753,0,6.077,2.01,6.077,6.349v.793l-7.771.103ZM743.116,505.766c-1.32,3.063-4.067,4.915-7.717,4.915-2.91,0-5.023-1.428-5.023-4.019,0-2.639,2.063-3.644,5.023-3.698l7.717-.109v2.911ZM756.047,477.271h6.289v6.343h-6.289v-6.343ZM756.634,487.845h5.072v26.432h-5.072v-26.432ZM770.688,487.845v26.431h5.073v-13.218c0-5.708,3.856-9.249,7.56-9.249,3.432,0,5.126,2.113,5.126,7.402v15.065h5.073v-16.813c0-6.5-3.063-10.254-8.614-10.254-3.964,0-7.244,2.748-9.2,6.029v-5.393h-5.0179ZM824.415,498.734c-6.186.108-9.987,2.644-9.987,8.14,0,5.024,3.747,8.038,8.825,8.038,4.491,0,7.614-2.064,9.145-5.024.1104,1.4728.3044,2.9382.581,4.389h4.97c-.636-1.586-.896-3.753-.95-6.132v-10.307c0-5.871-3.227-10.628-10.84-10.628-7.137,0-11.047,4.388-11.525,8.564h5.236c.211-1.9,2.009-4.285,6.234-4.285,3.758,0,6.083,2.01,6.083,6.349v.793l-7.772.103ZM832.187,505.766c-1.32,3.063-4.074,4.915-7.718,4.915-2.905,0-5.023-1.428-5.023-4.019,0-2.639,2.064-3.644,5.024-3.698l7.717-.109v2.911ZM845.753,487.845v26.431h5.077v-13.218c0-5.708,3.862-9.249,7.56-9.249,3.438,0,5.127,2.113,5.127,7.402v15.065h5.078v-16.813c0-6.5-3.069-10.254-8.619-10.254-3.964,0-7.24,2.748-9.2,6.029v-5.393h-5.023ZM894.847,493.238c-2.275-3.807-5.659-6.029-9.308-6.029-6.132,0-9.57,5.817-9.57,13.746,0,7.983,3.493,13.848,9.678,13.848,3.65,0,6.979-2.221,9.254-6.186v5.66h5.018v-37.007h-5.072v15.968ZM887.124,510.312c-3.595,0-6.028-3.172-6.028-9.357,0-6.083,2.33-9.254,5.925-9.254,3.22,0,8.032,3.492,8.032,9.308,0,5.762-4.648,9.303-7.929,9.303M923.679,477.271v37.006h5.393v-13.268l7.771-7.51,12.898,20.778h6.452l-15.434-24.374,12.844-12.632h-6.925l-17.606,17.601v-17.6l-5.393-.001ZM969.748,498.734c-6.18.108-9.987,2.644-9.987,8.14,0,5.024,3.753,8.038,8.825,8.038,4.497,0,7.614-2.064,9.146-5.024.1121,1.4729.3077,2.9382.586,4.389h4.964c-.63-1.586-.896-3.753-.945-6.132v-10.307c0-5.871-3.226-10.628-10.84-10.628-7.136,0-11.046,4.388-11.524,8.564h5.235c.207-1.9,2.01-4.285,6.235-4.285,3.758,0,6.082,2.01,6.082,6.349v.793l-7.7769.103ZM977.525,505.766c-1.325,3.063-4.073,4.915-7.722,4.915-2.906,0-5.018-1.428-5.018-4.019,0-2.639,2.063-3.644,5.018-3.698l7.722-.109v2.911ZM991.091,487.845v26.431h5.073v-13.479c0-4.6,2.802-8.933,5.767-8.933,1.847,0,2.852,1.265,2.852,3.644v1.113h4.339c.049-.32.049-1.059.049-1.955,0-4.763-2.113-7.457-5.817-7.457-2.694,0-5.127,1.901-7.245,5.708v-5.072h-5.018ZM1024.431,498.734c-6.186.108-9.987,2.644-9.987,8.14,0,5.024,3.747,8.038,8.825,8.038,4.491,0,7.614-2.064,9.145-5.024.1105,1.4728.3044,2.9382.5811,4.389h4.97c-.636-1.586-.897-3.753-.95-6.132v-10.307c0-5.871-3.2271-10.628-10.84-10.628-7.137,0-11.047,4.388-11.525,8.564h5.236c.211-1.9,2.009-4.285,6.2339-4.285,3.7581,0,6.083,2.01,6.083,6.349v.793l-7.7721.103ZM1032.202,505.766c-1.3199,3.063-4.073,4.915-7.717,4.915-2.905,0-5.023-1.428-5.023-4.019,0-2.639,2.063-3.644,5.023-3.698l7.717-.109v2.911ZM1055.229,510.578c-3.432,0-6.1801-1.374-6.55-4.23h-5.077c.526,4.914,4.811,8.564,11.524,8.564,6.452,0,10.416-3.492,10.416-8.298,0-3.704-2.379-6.61-7.348-7.614l-4.55-.902c-3.01-.58-4.014-1.586-4.014-3.226,0-1.955,1.689-3.486,4.969-3.486,3.432,0,5.338,1.743,5.605,3.91h5.072c-.739-4.703-4.3879-8.086-10.465-8.086-6.028,0-10.15,3.383-10.15,8.037,0,3.644,2.4871,6.289,7.396,7.397l4.4969,1.004c3.28.744,4.073,1.907,4.073,3.28,0,2.113-1.803,3.65-5.3979,3.65M1081.536,498.734c-6.1801.108-9.988,2.644-9.988,8.14,0,5.024,3.7531,8.038,8.825,8.038,4.4969,0,7.614-2.064,9.151-5.024.158,2.064.4189,3.541.582,4.389h4.969c-.636-1.586-.902-3.753-.95-6.132v-10.307c0-5.871-3.2271-10.628-10.84-10.628-7.137,0-11.047,4.388-11.525,8.564h5.236c.2061-1.9,2.01-4.285,6.234-4.285,3.7531,0,6.083,2.01,6.083,6.349v.793l-7.777.103ZM1089.313,505.766c-1.326,3.063-4.074,4.915-7.723,4.915-2.905,0-5.0179-1.428-5.0179-4.019,0-2.639,2.064-3.644,5.0179-3.698l7.723-.109v2.911ZM1120.007,493.976l6.235,20.3h5.925l8.722-26.431h-5.339l-6.24,21.196-6.397-21.196h-5.6541l-6.451,21.196-6.186-21.196h-5.447l8.515,26.432h5.92l6.397-20.301ZM1154.976,498.734c-6.186.108-9.9919,2.644-9.9919,8.14,0,5.024,3.752,8.038,8.83,8.038,4.491,0,7.609-2.064,9.145-5.024.158,2.064.4189,3.541.582,4.389h4.969c-.636-1.586-.902-3.753-.95-6.132v-10.307c0-5.871-3.226-10.628-10.84-10.628-7.136,0-11.052,4.388-11.524,8.564h5.235c.2061-1.9,2.004-4.285,6.234-4.285,3.7531,0,6.083,2.01,6.083,6.349v.793l-7.7721.103ZM1162.7479,505.766c-1.325,3.063-4.073,4.915-7.723,4.915-2.905,0-5.0179-1.428-5.0179-4.019,0-2.639,2.058-3.644,5.0179-3.698l7.723-.109v2.911ZM787.057,581.749c7.45,0,13.587-4.758,15.597-11.1l-4.92-1.744c-1.423,4.649-5.018,7.874-10.52,7.874-7.88,0-12.268-6.022-12.268-14.43,0-8.564,4.763-14.114,12.268-14.114,5.974,0,9.097,3.753,10.362,7.505l5.127-1.9c-2.221-6.137-8.25-10.574-15.489-10.574-10.78,0-17.867,8.14-17.867,19.296,0,11.627,6.979,19.187,17.71,19.187M808.389,567.846c0,8.14,5.072,13.8,12.371,13.8,7.342,0,12.42-5.66,12.42-13.8,0-8.195-5.077-13.903-12.42-13.903-7.299,0-12.371,5.708-12.371,13.903M820.7599,558.331c4.492,0,7.24,3.595,7.24,9.515,0,5.87-2.749,9.411-7.24,9.411-4.496,0-7.19-3.54-7.19-9.411,0-5.92,2.694-9.515,7.19-9.515M840.3,554.578v16.809c0,6.506,3.063,10.258,8.613,10.258,3.965,0,7.245-2.748,9.2-6.028v5.393h5.024v-26.432h-5.078v13.214c0,5.713-3.856,9.254-7.56,9.254-3.432,0-5.127-2.113-5.127-7.403v-15.065h-5.072ZM872.103,581.01h5.072v-13.48c0-4.6,2.803-8.933,5.762-8.933,1.852,0,2.852,1.266,2.852,3.644v1.114h4.339c.049-.32.049-1.06.049-1.956,0-4.762-2.113-7.456-5.811-7.456-2.694,0-5.127,1.9-7.245,5.708v-5.073h-5.018v26.4319ZM899.941,548.447v6.131h-5.181v4.231h5.181v16.015c0,4.285,2.487,6.186,7.299,6.186h5.235v-4.388h-4.073c-2.748,0-3.383-.95-3.383-2.905v-14.908h5.974v-4.23h-5.974v-9.515l-5.078,3.3831ZM920.757,585.452h-4.969v4.546h5.92c4.388,0,6.56-1.27,7.983-5.127l11.1-30.293h-5.338l-6.87,20.724-6.93-20.724h-5.441l9.83,26.801-.527,1.374c-.897,2.33-2.01,2.7-4.758,2.7M945.114,562.507h5.23c.212-1.9,2.01-4.285,6.24-4.285,3.753,0,6.077,2.01,6.077,6.349v.793l-7.771.103c-6.18.109-9.993,2.645-9.993,8.14,0,5.024,3.758,8.038,8.83,8.038,4.497,0,7.614-2.063,9.146-5.023.163,2.064.423,3.54.581,4.388h4.97c-.63-1.586-.902-3.753-.951-6.131v-10.3091c0-5.87-3.226-10.628-10.835-10.628-7.136,0-11.051,4.388-11.524,8.564v.001ZM962.661,572.5c-1.32,3.063-4.067,4.915-7.717,4.915-2.91,0-5.023-1.428-5.023-4.019,0-2.64,2.063-3.644,5.023-3.698l7.717-.109v2.911ZM981.25,559.65v-5.072h-5.017v26.432h5.072v-13.48c0-4.6,2.803-8.933,5.762-8.933,1.852,0,2.852,1.266,2.852,3.644v1.114h4.339c.049-.32.049-1.06.049-1.956,0-4.762-2.113-7.456-5.811-7.456-2.694,0-5.127,1.9-7.245,5.708l-.001-.001ZM999.574,567.688c0,7.984,3.492,13.849,9.678,13.849,3.65,0,6.979-2.222,9.254-6.186v5.659h5.018v-37.005h-5.072v15.966c-2.276-3.807-5.66-6.028-9.309-6.028-6.131,0-9.569,5.816-9.569,13.745M1018.658,567.743c0,5.762-4.649,9.302-7.929,9.302-3.595,0-6.028-3.171-6.028-9.357,0-6.082,2.33-9.254,5.925-9.254,3.22,0,8.032,3.492,8.032,9.309M1380.549,1063.204h562.651v12.86h-562.651v-12.86Z"/>
    <path d="M.049,358.5v708.457h-.049v12.86h416.83v46.444h-176.899v45.021h12.86v-32.161h164.039v32.161h12.86v-91.465h.006v-12.86H12.909V371.377l215.733.214v319.485H83.922v185.857h12.86v-172.991h131.86v160.127h-69.34v12.865h82.2v-502.234l1024.56,698.996,10.053,6.865V362.804h772.0701v713.076l241.592.114L2813.313,30.094v1056.25h-56.96v45.022h12.865v-32.161h164.0339v32.16h12.865v-45.02h-119.939V2.878l-12.1819-2.878-532.1631,1063.123-220.78-.104V349.94h-784.937v-.052h-12.86v706.322L241.502,359.13v-.388L.049,358.5Z"/>
    <path d="M304.759,863.965h424.481v12.866h-424.481v-12.866ZM2826.6399,1258.408h119.4771v-45.015h-12.865v32.155h-164.0339v-32.156h-12.866v45.016h57.425v45.95l163.9309.0699v241.8929h-520.613l-.1311-255.589-214.6389-.744v140.261h12.866v-127.3571l188.918.657.0569,113.835h-140.3101v12.86h140.3159l.0569,116.077h-188.2151v-67.287h-12.866v67.287h-117.364l-117.892-225.415-50.001,24.46,5.653,11.557,38.754-18.965,110.913,212.083-479.468,254.312-113.814-216.446,374.47-195.212-5.946-11.4041-374.51,195.2319-153.7209-292.34-11.3831,5.985,273.543,520.2109-303.152,160.793-271.495-514.502h-90.03l-193.56-130.828-7.202,10.655,189.93,128.379-184.89,272.452-262.573-169.506,190.653-282.444h-260.3733v-32.0699h-12.86v32.162h-164.037v-32.161h-12.86v45.021h189.758v-.092h236.174l-184.462,273.266,284.166,183.452,193.69-285.426h80.722l273.891,519.042,809.5499-429.39h867.1541v-267.613l-163.9341-.071-.001-33.0895Z"/>
  </g>
  <g id="Layer_2" data-name="Layer 2">
    <polygon class="cls-2" points="2288.8651 1072.7349 2813.9561 1072.7349 2813.9561 23.7296 2288.8651 1072.7349"/>
    <rect class="cls-2" x="2456.6795" y="1301.8486" width="519.9532" height="242.6111"/>
    <rect class="cls-2" x="1272.1927" y="357.4268" width="774.3637" height="702.4807"/>
    <polygon class="cls-2" points="941.9733 1462.7723 681.6869 1286.7594 493.1801 1566.0241 756.533 1736.0332 941.9733 1462.7723"/>
    <polygon class="cls-2" points="1043.1335 1454.542 1315.4357 1970.572 1619.4877 1809.3018 1345.1323 1287.545 1043.1335 1454.542"/>
    <polygon class="cls-2" points="1516.4631 1585.66 1630.8827 1803.2577 2111.775 1548.1909 2000.1325 1334.7128 1516.4631 1585.66"/>
    <polygon class="cls-2" points="1356.5491 1281.5425 1510.7268 1574.7507 2006.1429 1318.3745 1356.5491 1281.5425"/>
    <polygon class="cls-2" points="684.3995 1282.7408 952.8369 1454.542 1043.1335 1454.542 1272.1927 1077.3158 970.4444 872.9802 423.2525 872.9802 423.2525 1282.7408 684.3995 1282.7408"/>
  </g>
</svg>